<svg width="75" height="76" viewBox="0 0 75 76" fill="none" xmlns="http://www.w3.org/2000/svg">
<path d="M71.7148 30.7145C70.5312 25.9653 68.2875 22.384 63.5075 22.384H57.3445V29.6693C57.3445 35.3254 52.5489 40.0898 47.0773 40.0898H30.6625C26.1743 40.0898 22.455 43.9326 22.455 48.4357V64.0823C22.455 68.5392 26.3281 71.152 30.6625 72.4281C35.8573 73.9495 40.8523 74.2264 47.0772 72.4281C51.2118 71.2289 55.2848 68.8162 55.2848 64.0823V60.8015H38.8854V55.7364H63.5073C68.2875 55.7364 70.0548 52.4011 71.7147 47.4061C73.4362 42.257 73.3595 37.3079 71.7148 30.7145Z" stroke="black" stroke-width="3" stroke-miterlimit="10" stroke-linecap="round" stroke-linejoin="round"/>
<path d="M46.6284 64.9856C47.5181 64.9856 48.2393 65.715 48.2393 66.6126C48.2393 67.5179 47.5183 68.2475 46.6284 68.2475C45.747 68.2475 45.0176 67.5101 45.0176 66.6126C45.0256 65.7068 45.747 64.9856 46.6284 64.9856Z" stroke="black" stroke-width="3" stroke-miterlimit="10" stroke-linecap="round" stroke-linejoin="round"/>
<path d="M27.8133 35.5395H44.2279C48.7929 35.5395 52.4356 31.7737 52.4356 27.1936V11.5318C52.4356 7.07481 48.6853 3.73949 44.2279 2.98637C38.7258 2.07949 32.747 2.12559 27.8133 3.00153C20.8661 4.23121 19.6059 6.79809 19.6059 11.5473V14.8993H36.0359V19.8929H13.4426C8.66278 19.8929 4.48185 22.767 3.1756 28.2234C1.66935 34.4789 1.60794 38.3828 3.1756 44.915C4.34372 49.772 7.1256 53.2453 11.9056 53.2453H17.5464V45.7451C17.5462 40.3196 22.234 35.5395 27.8133 35.5395Z" stroke="black" stroke-width="3" stroke-miterlimit="10" stroke-linecap="round" stroke-linejoin="round"/>
<path d="M26.7836 10.6282C25.894 10.6282 25.1728 9.89902 25.1728 9.00152C25.1808 8.0959 25.894 7.36668 26.7836 7.36668C27.6651 7.36668 28.3943 8.10387 28.3943 9.00152C28.3943 9.89902 27.6731 10.6282 26.7836 10.6282Z" stroke="black" stroke-width="3" stroke-miterlimit="10" stroke-linecap="round" stroke-linejoin="round"/>
</svg>
