<svg width="87" height="77" viewBox="0 0 87 77" fill="none" xmlns="http://www.w3.org/2000/svg">
<mask id="path-1-outside-1_808_182" maskUnits="userSpaceOnUse" x="-0.554932" y="-0.717285" width="88" height="77" fill="black">
<rect fill="white" x="-0.554932" y="-0.717285" width="88" height="77"/>
<path d="M43.4451 30.5189C42.4385 30.5189 41.4418 30.7149 40.5119 31.0956C39.582 31.4763 38.737 32.0343 38.0253 32.7378C37.3135 33.4412 36.749 34.2764 36.3638 35.1955C35.9786 36.1146 35.7803 37.0997 35.7803 38.0946C35.7803 39.0894 35.9786 40.0745 36.3638 40.9936C36.749 41.9127 37.3135 42.7479 38.0253 43.4513C38.737 44.1548 39.582 44.7128 40.5119 45.0935C41.4418 45.4742 42.4385 45.6702 43.4451 45.6702C44.4516 45.6702 45.4483 45.4742 46.3782 45.0935C47.3082 44.7128 48.1531 44.1548 48.8649 43.4513C49.5766 42.7479 50.1412 41.9127 50.5264 40.9936C50.9116 40.0745 51.1098 39.0894 51.1098 38.0946C51.1098 37.0997 50.9116 36.1146 50.5264 35.1955C50.1412 34.2764 49.5766 33.4412 48.8649 32.7378C48.1531 32.0343 47.3082 31.4763 46.3782 31.0956C45.4483 30.7149 44.4516 30.5189 43.4451 30.5189ZM21.9737 53.1643L20.2824 52.7393C7.67623 49.5908 0.445068 44.2464 0.445068 38.0804C0.445068 31.9144 7.67623 26.57 20.2824 23.4214L21.9737 23L22.4503 24.6575C23.7274 29.0056 25.3608 33.2437 27.3344 37.3296L27.6963 38.0839L27.3344 38.8383C25.3575 42.9228 23.724 47.1611 22.4503 51.5104L21.9737 53.1643ZM19.4977 27.2925C9.91582 29.9523 4.03557 34.0216 4.03557 38.0804C4.03557 42.1356 9.91582 46.205 19.4977 48.8683C20.6695 45.1847 22.0844 41.581 23.7332 38.0804C22.0825 34.5805 20.6676 30.9767 19.4977 27.2925ZM64.9164 53.1643L64.4398 51.5033C63.1641 47.1554 61.5294 42.9183 59.5522 38.8348L59.1902 38.0804L59.5522 37.326C61.5286 33.2409 63.1633 29.0027 64.4398 24.6539L64.9164 22.9964L66.6113 23.4179C79.2139 26.5664 86.4451 31.9108 86.4451 38.0804C86.4451 44.25 79.2139 49.5908 66.6113 52.7393L64.9164 53.1643ZM63.157 38.0804C64.877 41.7602 66.2996 45.3762 67.3925 48.8683C76.9779 46.205 82.8546 42.1356 82.8546 38.0804C82.8546 34.0216 76.9743 29.9558 67.3925 27.2925C66.2222 30.9766 64.8073 34.5804 63.157 38.0804ZM19.4726 27.2748L18.996 25.6208C15.4521 13.2746 16.5271 4.42748 21.9451 1.33914C27.2592 -1.69252 35.7911 1.8881 44.7315 10.9583L45.9498 12.1943L44.7315 13.4304C41.5547 16.6944 38.6522 20.2087 36.0527 23.9385L35.5689 24.6221L34.7268 24.6929C30.1542 25.0492 25.6183 25.7717 21.1639 26.8533L19.4726 27.2748ZM26.2666 3.79352C25.3062 3.79352 24.457 3.99893 23.7403 4.40623C20.1785 6.4356 19.5478 13.4906 22.0024 23.0106C25.8209 22.171 29.6908 21.5783 33.5873 21.2362C35.8356 18.0766 38.2919 15.0668 40.9403 12.2262C35.3503 6.84643 30.0577 3.79352 26.2666 3.79352ZM60.6272 75.9089C60.6236 75.9089 60.6236 75.9089 60.6272 75.9089C55.5209 75.9089 48.9634 72.1087 42.1586 65.2025L40.9403 63.9664L42.1586 62.7304C45.3346 59.4653 48.236 55.9498 50.8339 52.2187L51.3176 51.5352L52.1562 51.4643C56.7312 51.11 61.2695 50.3887 65.7262 49.3075L67.4176 48.886L67.8977 50.5435C71.4345 62.8827 70.3631 71.7333 64.9451 74.8181C63.629 75.5536 62.1388 75.93 60.6272 75.9089ZM45.9498 63.9346C51.5398 69.3143 56.8324 72.3673 60.6236 72.3673C61.5803 72.3673 62.4367 72.1618 63.1498 71.7546C66.7117 69.7252 67.3459 62.6666 64.8877 53.1466C61.0682 53.9874 57.1971 54.5801 53.2992 54.921C51.0537 58.0828 48.5985 61.0939 45.9498 63.9346ZM67.4176 27.2748L65.7262 26.8533C61.2701 25.7686 56.7316 25.046 52.1562 24.6929L51.3176 24.6221L50.8339 23.9385C48.2373 20.2076 45.3358 16.6931 42.1586 13.4304L40.9403 12.1943L42.1586 10.9583C51.0955 1.89164 59.6238 -1.68898 64.9451 1.33914C70.3631 4.42748 71.4381 13.2746 67.8977 25.6173L67.4176 27.2748ZM53.2992 21.2362C57.3914 21.6046 61.2793 22.2031 64.8877 23.0106C67.3459 13.4906 66.7117 6.4356 63.1498 4.40623C59.6095 2.38393 52.9552 5.48289 45.9498 12.2262C48.597 15.0669 51.0521 18.0768 53.2992 21.2362ZM26.2666 75.9089C24.7537 75.9306 23.2622 75.5542 21.9451 74.8181C16.5271 71.7333 15.4521 62.8862 18.996 50.5435L19.469 48.886L21.1603 49.3075C25.2991 50.3381 29.8642 51.0641 34.7232 51.4643L35.5653 51.5352L36.0455 52.2187C38.6454 55.9493 41.5479 59.4648 44.7243 62.7304L45.9426 63.9664L44.7243 65.2025C37.9232 72.1087 31.3657 75.9089 26.2666 75.9089ZM22.0024 53.1466C19.5442 62.6666 20.1785 69.7252 23.7403 71.7546C27.2771 73.7485 33.9277 70.6743 40.9403 63.9346C38.293 61.0918 35.8367 58.0809 33.5873 54.921C29.6906 54.5804 25.8207 53.9877 22.0024 53.1466ZM43.4451 55.3708C40.496 55.3708 37.4645 55.2433 34.4294 54.9954L33.5873 54.9246L33.1036 54.241C31.3868 51.8029 29.7729 49.2956 28.2661 46.7256C26.7637 44.1535 25.3697 41.521 24.0879 38.8348L23.7332 38.0804L24.0879 37.326C25.3695 34.6397 26.7635 32.0072 28.2661 29.4352C29.7496 26.8994 31.38 24.3706 33.1036 21.9198L33.5873 21.2362L34.4294 21.1654C40.4303 20.6625 46.4634 20.6625 52.4643 21.1654L53.3028 21.2362L53.783 21.9198C57.22 26.7969 60.237 31.9504 62.8022 37.326L63.1642 38.0804L62.8022 38.8348C60.2431 44.2136 57.2259 49.3676 53.783 54.241L53.3028 54.9246L52.4643 54.9954C49.4292 55.2433 46.3941 55.3708 43.4451 55.3708ZM35.5725 51.5316C40.8758 51.9248 46.0143 51.9248 51.3212 51.5316C54.284 47.2507 56.9146 42.7541 59.1902 38.0804C56.9186 33.4039 54.2866 28.9069 51.3176 24.6291C46.0768 24.236 40.8133 24.236 35.5725 24.6291C32.6022 28.9061 29.9702 33.4032 27.6999 38.0804C29.978 42.7535 32.6097 47.25 35.5725 51.5316Z"/>
</mask>
<path d="M43.4451 30.5189C42.4385 30.5189 41.4418 30.7149 40.5119 31.0956C39.582 31.4763 38.737 32.0343 38.0253 32.7378C37.3135 33.4412 36.749 34.2764 36.3638 35.1955C35.9786 36.1146 35.7803 37.0997 35.7803 38.0946C35.7803 39.0894 35.9786 40.0745 36.3638 40.9936C36.749 41.9127 37.3135 42.7479 38.0253 43.4513C38.737 44.1548 39.582 44.7128 40.5119 45.0935C41.4418 45.4742 42.4385 45.6702 43.4451 45.6702C44.4516 45.6702 45.4483 45.4742 46.3782 45.0935C47.3082 44.7128 48.1531 44.1548 48.8649 43.4513C49.5766 42.7479 50.1412 41.9127 50.5264 40.9936C50.9116 40.0745 51.1098 39.0894 51.1098 38.0946C51.1098 37.0997 50.9116 36.1146 50.5264 35.1955C50.1412 34.2764 49.5766 33.4412 48.8649 32.7378C48.1531 32.0343 47.3082 31.4763 46.3782 31.0956C45.4483 30.7149 44.4516 30.5189 43.4451 30.5189ZM21.9737 53.1643L20.2824 52.7393C7.67623 49.5908 0.445068 44.2464 0.445068 38.0804C0.445068 31.9144 7.67623 26.57 20.2824 23.4214L21.9737 23L22.4503 24.6575C23.7274 29.0056 25.3608 33.2437 27.3344 37.3296L27.6963 38.0839L27.3344 38.8383C25.3575 42.9228 23.724 47.1611 22.4503 51.5104L21.9737 53.1643ZM19.4977 27.2925C9.91582 29.9523 4.03557 34.0216 4.03557 38.0804C4.03557 42.1356 9.91582 46.205 19.4977 48.8683C20.6695 45.1847 22.0844 41.581 23.7332 38.0804C22.0825 34.5805 20.6676 30.9767 19.4977 27.2925ZM64.9164 53.1643L64.4398 51.5033C63.1641 47.1554 61.5294 42.9183 59.5522 38.8348L59.1902 38.0804L59.5522 37.326C61.5286 33.2409 63.1633 29.0027 64.4398 24.6539L64.9164 22.9964L66.6113 23.4179C79.2139 26.5664 86.4451 31.9108 86.4451 38.0804C86.4451 44.25 79.2139 49.5908 66.6113 52.7393L64.9164 53.1643ZM63.157 38.0804C64.877 41.7602 66.2996 45.3762 67.3925 48.8683C76.9779 46.205 82.8546 42.1356 82.8546 38.0804C82.8546 34.0216 76.9743 29.9558 67.3925 27.2925C66.2222 30.9766 64.8073 34.5804 63.157 38.0804ZM19.4726 27.2748L18.996 25.6208C15.4521 13.2746 16.5271 4.42748 21.9451 1.33914C27.2592 -1.69252 35.7911 1.8881 44.7315 10.9583L45.9498 12.1943L44.7315 13.4304C41.5547 16.6944 38.6522 20.2087 36.0527 23.9385L35.5689 24.6221L34.7268 24.6929C30.1542 25.0492 25.6183 25.7717 21.1639 26.8533L19.4726 27.2748ZM26.2666 3.79352C25.3062 3.79352 24.457 3.99893 23.7403 4.40623C20.1785 6.4356 19.5478 13.4906 22.0024 23.0106C25.8209 22.171 29.6908 21.5783 33.5873 21.2362C35.8356 18.0766 38.2919 15.0668 40.9403 12.2262C35.3503 6.84643 30.0577 3.79352 26.2666 3.79352ZM60.6272 75.9089C60.6236 75.9089 60.6236 75.9089 60.6272 75.9089C55.5209 75.9089 48.9634 72.1087 42.1586 65.2025L40.9403 63.9664L42.1586 62.7304C45.3346 59.4653 48.236 55.9498 50.8339 52.2187L51.3176 51.5352L52.1562 51.4643C56.7312 51.11 61.2695 50.3887 65.7262 49.3075L67.4176 48.886L67.8977 50.5435C71.4345 62.8827 70.3631 71.7333 64.9451 74.8181C63.629 75.5536 62.1388 75.93 60.6272 75.9089ZM45.9498 63.9346C51.5398 69.3143 56.8324 72.3673 60.6236 72.3673C61.5803 72.3673 62.4367 72.1618 63.1498 71.7546C66.7117 69.7252 67.3459 62.6666 64.8877 53.1466C61.0682 53.9874 57.1971 54.5801 53.2992 54.921C51.0537 58.0828 48.5985 61.0939 45.9498 63.9346ZM67.4176 27.2748L65.7262 26.8533C61.2701 25.7686 56.7316 25.046 52.1562 24.6929L51.3176 24.6221L50.8339 23.9385C48.2373 20.2076 45.3358 16.6931 42.1586 13.4304L40.9403 12.1943L42.1586 10.9583C51.0955 1.89164 59.6238 -1.68898 64.9451 1.33914C70.3631 4.42748 71.4381 13.2746 67.8977 25.6173L67.4176 27.2748ZM53.2992 21.2362C57.3914 21.6046 61.2793 22.2031 64.8877 23.0106C67.3459 13.4906 66.7117 6.4356 63.1498 4.40623C59.6095 2.38393 52.9552 5.48289 45.9498 12.2262C48.597 15.0669 51.0521 18.0768 53.2992 21.2362ZM26.2666 75.9089C24.7537 75.9306 23.2622 75.5542 21.9451 74.8181C16.5271 71.7333 15.4521 62.8862 18.996 50.5435L19.469 48.886L21.1603 49.3075C25.2991 50.3381 29.8642 51.0641 34.7232 51.4643L35.5653 51.5352L36.0455 52.2187C38.6454 55.9493 41.5479 59.4648 44.7243 62.7304L45.9426 63.9664L44.7243 65.2025C37.9232 72.1087 31.3657 75.9089 26.2666 75.9089ZM22.0024 53.1466C19.5442 62.6666 20.1785 69.7252 23.7403 71.7546C27.2771 73.7485 33.9277 70.6743 40.9403 63.9346C38.293 61.0918 35.8367 58.0809 33.5873 54.921C29.6906 54.5804 25.8207 53.9877 22.0024 53.1466ZM43.4451 55.3708C40.496 55.3708 37.4645 55.2433 34.4294 54.9954L33.5873 54.9246L33.1036 54.241C31.3868 51.8029 29.7729 49.2956 28.2661 46.7256C26.7637 44.1535 25.3697 41.521 24.0879 38.8348L23.7332 38.0804L24.0879 37.326C25.3695 34.6397 26.7635 32.0072 28.2661 29.4352C29.7496 26.8994 31.38 24.3706 33.1036 21.9198L33.5873 21.2362L34.4294 21.1654C40.4303 20.6625 46.4634 20.6625 52.4643 21.1654L53.3028 21.2362L53.783 21.9198C57.22 26.7969 60.237 31.9504 62.8022 37.326L63.1642 38.0804L62.8022 38.8348C60.2431 44.2136 57.2259 49.3676 53.783 54.241L53.3028 54.9246L52.4643 54.9954C49.4292 55.2433 46.3941 55.3708 43.4451 55.3708ZM35.5725 51.5316C40.8758 51.9248 46.0143 51.9248 51.3212 51.5316C54.284 47.2507 56.9146 42.7541 59.1902 38.0804C56.9186 33.4039 54.2866 28.9069 51.3176 24.6291C46.0768 24.236 40.8133 24.236 35.5725 24.6291C32.6022 28.9061 29.9702 33.4032 27.6999 38.0804C29.978 42.7535 32.6097 47.25 35.5725 51.5316Z" fill="black"/>
<path d="M43.4451 30.5189V30.7689V30.5189ZM43.4451 45.6702V45.4202V45.6702ZM21.9737 53.1643L21.9128 53.4068L22.1471 53.4657L22.214 53.2336L21.9737 53.1643ZM20.2824 52.7393L20.3433 52.4969L20.343 52.4968L20.2824 52.7393ZM20.2824 23.4214L20.222 23.1789L20.2218 23.1789L20.2824 23.4214ZM21.9737 23L22.214 22.9309L22.1473 22.6991L21.9133 22.7574L21.9737 23ZM22.4503 24.6575L22.21 24.7266L22.2104 24.7279L22.4503 24.6575ZM27.3344 37.3296L27.5598 37.2214L27.5595 37.2208L27.3344 37.3296ZM27.6963 38.0839L27.9217 38.1921L27.9736 38.0839L27.9217 37.9758L27.6963 38.0839ZM27.3344 38.8383L27.5594 38.9472L27.5598 38.9464L27.3344 38.8383ZM22.4503 51.5104L22.2104 51.4401L22.2101 51.4412L22.4503 51.5104ZM19.4977 27.2925L19.7359 27.2168L19.663 26.9871L19.4308 27.0516L19.4977 27.2925ZM19.4977 48.8683L19.4307 49.1092L19.6628 49.1737L19.7359 48.9441L19.4977 48.8683ZM64.9164 53.1643L64.6761 53.2333L64.7428 53.4656L64.9772 53.4068L64.9164 53.1643ZM64.4398 51.5033L64.6801 51.4344L64.6797 51.4329L64.4398 51.5033ZM59.5522 38.8348L59.3268 38.9429L59.3271 38.9437L59.5522 38.8348ZM59.5522 37.326L59.3271 37.2171L59.3268 37.2179L59.5522 37.326ZM64.4398 24.6539L64.6797 24.7243L64.6801 24.723L64.4398 24.6539ZM64.9164 22.9964L64.9767 22.7538L64.7428 22.6956L64.6761 22.9273L64.9164 22.9964ZM66.6113 23.4179L66.6719 23.1753L66.6716 23.1753L66.6113 23.4179ZM66.6113 52.7393L66.5507 52.4968L66.5505 52.4969L66.6113 52.7393ZM63.157 38.0804L62.9309 37.9738L62.8808 38.0799L62.9305 38.1863L63.157 38.0804ZM67.3925 48.8683L67.1539 48.943L67.2262 49.174L67.4594 49.1092L67.3925 48.8683ZM67.3925 27.2925L67.4594 27.0516L67.2272 26.9871L67.1542 27.2168L67.3925 27.2925ZM19.4726 27.2748L19.2323 27.344L19.2991 27.5756L19.533 27.5173L19.4726 27.2748ZM18.996 25.6208L18.7557 25.6898L18.7558 25.69L18.996 25.6208ZM21.9451 1.33914L22.0689 1.55634L22.069 1.55629L21.9451 1.33914ZM44.7315 10.9583L44.9095 10.7828V10.7828L44.7315 10.9583ZM45.9498 12.1943L46.1279 12.3698L46.3008 12.1943L46.1279 12.0189L45.9498 12.1943ZM44.7315 13.4304L44.5534 13.2549L44.5523 13.256L44.7315 13.4304ZM36.0527 23.9385L36.2567 24.0829L36.2578 24.0815L36.0527 23.9385ZM35.5689 24.6221L35.5899 24.8712L35.7058 24.8614L35.773 24.7665L35.5689 24.6221ZM34.7268 24.6929L34.7462 24.9421L34.7478 24.942L34.7268 24.6929ZM21.1639 26.8533L21.1049 26.6104L21.1035 26.6107L21.1639 26.8533ZM23.7403 4.40623L23.6168 4.18887L23.6166 4.18901L23.7403 4.40623ZM22.0024 23.0106L21.7603 23.073L21.8205 23.3066L22.0561 23.2548L22.0024 23.0106ZM40.9403 12.2262L41.1232 12.3967L41.291 12.2167L41.1137 12.0461L40.9403 12.2262ZM60.6272 75.9089L60.6306 75.6589H60.6272V75.9089ZM42.1586 65.2025L42.3367 65.027L42.3367 65.027L42.1586 65.2025ZM40.9403 63.9664L40.7623 63.7909L40.5893 63.9664L40.7623 64.1419L40.9403 63.9664ZM42.1586 62.7304L42.3367 62.9059L42.3379 62.9047L42.1586 62.7304ZM50.8339 52.2187L50.6298 52.0743L50.6287 52.0759L50.8339 52.2187ZM51.3176 51.5352L51.2966 51.2861L51.1807 51.2959L51.1136 51.3908L51.3176 51.5352ZM52.1562 51.4643L52.1368 51.2151L52.1351 51.2152L52.1562 51.4643ZM65.7262 49.3075L65.7852 49.5504L65.7867 49.5501L65.7262 49.3075ZM67.4176 48.886L67.6577 48.8165L67.5907 48.5852L67.3571 48.6434L67.4176 48.886ZM67.8977 50.5435L68.1381 50.4746L68.1379 50.474L67.8977 50.5435ZM64.9451 74.8181L65.067 75.0363L65.0688 75.0353L64.9451 74.8181ZM45.9498 63.9346L45.767 63.7641L45.5992 63.944L45.7765 64.1147L45.9498 63.9346ZM63.1498 71.7546L63.0261 71.5373L63.0258 71.5375L63.1498 71.7546ZM64.8877 53.1466L65.1298 53.0841L65.0695 52.8506L64.834 52.9025L64.8877 53.1466ZM53.2992 54.921L53.2775 54.672L53.1623 54.682L53.0954 54.7763L53.2992 54.921ZM67.4176 27.2748L67.3571 27.5173L67.5907 27.5756L67.6577 27.3443L67.4176 27.2748ZM65.7262 26.8533L65.7867 26.6107L65.7854 26.6104L65.7262 26.8533ZM52.1562 24.6929L52.1351 24.942L52.1369 24.9421L52.1562 24.6929ZM51.3176 24.6221L51.1136 24.7665L51.1807 24.8614L51.2966 24.8712L51.3176 24.6221ZM50.8339 23.9385L50.6287 24.0813L50.6298 24.0829L50.8339 23.9385ZM42.1586 13.4304L42.3378 13.256L42.3367 13.2549L42.1586 13.4304ZM40.9403 12.1943L40.7623 12.0189L40.5893 12.1943L40.7623 12.3698L40.9403 12.1943ZM42.1586 10.9583L41.9806 10.7828L42.1586 10.9583ZM64.9451 1.33914L65.0689 1.12195L65.0687 1.12186L64.9451 1.33914ZM67.8977 25.6173L68.1379 25.6868L68.138 25.6862L67.8977 25.6173ZM53.2992 21.2362L53.0955 21.3811L53.1622 21.4749L53.2768 21.4852L53.2992 21.2362ZM64.8877 23.0106L64.8331 23.2546L65.0693 23.3074L65.1298 23.0731L64.8877 23.0106ZM63.1498 4.40623L63.0258 4.62331L63.0261 4.62344L63.1498 4.40623ZM45.9498 12.2262L45.7764 12.0461L45.5992 12.2167L45.7669 12.3967L45.9498 12.2262ZM26.2666 75.9089V75.6589L26.263 75.659L26.2666 75.9089ZM21.9451 74.8181L21.8214 75.0354L21.8231 75.0363L21.9451 74.8181ZM18.996 50.5435L19.2363 50.6125L19.2364 50.6121L18.996 50.5435ZM19.469 48.886L19.5294 48.6434L19.2949 48.585L19.2286 48.8174L19.469 48.886ZM21.1603 49.3075L21.0999 49.5501L21.0999 49.5501L21.1603 49.3075ZM34.7232 51.4643L34.7442 51.2152L34.7438 51.2152L34.7232 51.4643ZM35.5653 51.5352L35.7699 51.3915L35.7027 51.2959L35.5863 51.2861L35.5653 51.5352ZM36.0455 52.2187L36.2506 52.0758L36.2501 52.075L36.0455 52.2187ZM44.7243 62.7304L44.5451 62.9047L44.5463 62.9059L44.7243 62.7304ZM45.9426 63.9664L46.1207 64.1419L46.2937 63.9664L46.1207 63.7909L45.9426 63.9664ZM44.7243 65.2025L44.5463 65.027L44.5462 65.0271L44.7243 65.2025ZM22.0024 53.1466L22.0562 52.9025L21.8206 52.8506L21.7603 53.0841L22.0024 53.1466ZM23.7403 71.7546L23.6166 71.9718L23.6175 71.9723L23.7403 71.7546ZM40.9403 63.9346L41.1136 64.1148L41.291 63.9443L41.1233 63.7642L40.9403 63.9346ZM33.5873 54.921L33.791 54.776L33.7241 54.682L33.6091 54.672L33.5873 54.921ZM34.4294 54.9954L34.4084 55.2445L34.409 55.2446L34.4294 54.9954ZM33.5873 54.9246L33.3833 55.069L33.4504 55.1639L33.5664 55.1737L33.5873 54.9246ZM33.1036 54.241L32.8992 54.3849L32.8995 54.3854L33.1036 54.241ZM28.2661 46.7256L28.0502 46.8517L28.0504 46.8521L28.2661 46.7256ZM24.0879 38.8348L23.8617 38.9412L23.8623 38.9424L24.0879 38.8348ZM24.0879 37.326L23.8623 37.2184L23.8617 37.2196L24.0879 37.326ZM28.2661 29.4352L28.0503 29.3089L28.0502 29.3091L28.2661 29.4352ZM33.1036 21.9198L32.8995 21.7753L32.8991 21.776L33.1036 21.9198ZM34.4294 21.1654L34.4085 20.9163L34.4084 20.9163L34.4294 21.1654ZM52.4643 21.1654L52.4854 20.9163L52.4852 20.9163L52.4643 21.1654ZM53.3028 21.2362L53.5074 21.0925L53.4403 20.9969L53.3239 20.9871L53.3028 21.2362ZM53.783 21.9198L53.5784 22.0635L53.5786 22.0638L53.783 21.9198ZM62.8022 37.326L62.5766 37.4337L62.5768 37.4342L62.8022 37.326ZM63.1642 38.0804L63.3896 38.1885L63.4414 38.0804L63.3896 37.9723L63.1642 38.0804ZM62.8022 38.8348L62.5768 38.7266L62.5765 38.7274L62.8022 38.8348ZM53.783 54.241L53.5788 54.0968L53.5784 54.0973L53.783 54.241ZM53.3028 54.9246L53.3239 55.1737L53.4403 55.1638L53.5074 55.0683L53.3028 54.9246ZM52.4643 54.9954L52.4847 55.2446L52.4854 55.2445L52.4643 54.9954ZM35.5725 51.5316L35.3669 51.6739L35.4349 51.7721L35.554 51.781L35.5725 51.5316ZM51.3212 51.5316L51.3397 51.781L51.4588 51.7721L51.5268 51.6739L51.3212 51.5316ZM51.3176 24.6291L51.523 24.4866L51.4551 24.3888L51.3363 24.3798L51.3176 24.6291ZM35.5725 24.6291L35.5538 24.3798L35.4351 24.3887L35.3671 24.4865L35.5725 24.6291ZM27.6999 38.0804L27.475 37.9712L27.4219 38.0806L27.4752 38.1899L27.6999 38.0804ZM43.4451 30.2689C42.4061 30.2689 41.3772 30.4712 40.4172 30.8642L40.6066 31.327C41.5064 30.9586 42.4709 30.7689 43.4451 30.7689V30.2689ZM40.4172 30.8642C39.4571 31.2573 38.5846 31.8334 37.8495 32.56L38.201 32.9156C38.8894 32.2352 39.7068 31.6953 40.6066 31.327L40.4172 30.8642ZM37.8495 32.56C37.1144 33.2865 36.5312 34.1492 36.1332 35.0989L36.5943 35.2921C36.9667 34.4035 37.5126 33.596 38.201 32.9156L37.8495 32.56ZM36.1332 35.0989C35.7352 36.0485 35.5303 37.0665 35.5303 38.0946H36.0303C36.0303 37.133 36.2219 36.1807 36.5943 35.2921L36.1332 35.0989ZM35.5303 38.0946C35.5303 39.1226 35.7352 40.1406 36.1332 41.0903L36.5943 40.897C36.2219 40.0084 36.0303 39.0562 36.0303 38.0946H35.5303ZM36.1332 41.0903C36.5312 42.0399 37.1144 42.9026 37.8495 43.6291L38.201 43.2735C37.5126 42.5931 36.9667 41.7856 36.5943 40.897L36.1332 41.0903ZM37.8495 43.6291C38.5846 44.3557 39.4571 44.9318 40.4172 45.3249L40.6066 44.8622C39.7068 44.4938 38.8894 43.9539 38.201 43.2735L37.8495 43.6291ZM40.4172 45.3249C41.3772 45.7179 42.4061 45.9202 43.4451 45.9202V45.4202C42.4709 45.4202 41.5064 45.2305 40.6066 44.8622L40.4172 45.3249ZM43.4451 45.9202C44.484 45.9202 45.5129 45.7179 46.473 45.3249L46.2835 44.8622C45.3837 45.2305 44.4192 45.4202 43.4451 45.4202V45.9202ZM46.473 45.3249C47.433 44.9318 48.3055 44.3557 49.0406 43.6291L48.6891 43.2735C48.0007 43.9539 47.1833 44.4938 46.2835 44.8622L46.473 45.3249ZM49.0406 43.6291C49.7757 42.9026 50.359 42.0399 50.7569 41.0903L50.2958 40.897C49.9234 41.7856 49.3775 42.5931 48.6891 43.2735L49.0406 43.6291ZM50.7569 41.0903C51.1549 40.1406 51.3598 39.1226 51.3598 38.0946H50.8598C50.8598 39.0562 50.6682 40.0084 50.2958 40.897L50.7569 41.0903ZM51.3598 38.0946C51.3598 37.0665 51.1549 36.0485 50.7569 35.0989L50.2958 35.2921C50.6682 36.1807 50.8598 37.133 50.8598 38.0946H51.3598ZM50.7569 35.0989C50.359 34.1492 49.7757 33.2865 49.0406 32.56L48.6891 32.9156C49.3775 33.596 49.9234 34.4035 50.2958 35.2921L50.7569 35.0989ZM49.0406 32.56C48.3055 31.8334 47.433 31.2573 46.473 30.8642L46.2835 31.327C47.1833 31.6953 48.0007 32.2352 48.6891 32.9156L49.0406 32.56ZM46.473 30.8642C45.5129 30.4712 44.484 30.2689 43.4451 30.2689V30.7689C44.4192 30.7689 45.3837 30.9586 46.2835 31.327L46.473 30.8642ZM22.0347 52.9219L20.3433 52.4969L20.2215 52.9818L21.9128 53.4068L22.0347 52.9219ZM20.343 52.4968C14.0575 50.9269 9.13258 48.8142 5.785 46.3404C2.43729 43.8665 0.695068 41.0548 0.695068 38.0804H0.195068C0.195068 41.272 2.06843 44.2156 5.48784 46.7425C8.90739 49.2695 13.9012 51.4032 20.2218 52.9819L20.343 52.4968ZM0.695068 38.0804C0.695068 35.106 2.43729 32.2943 5.785 29.8204C9.13258 27.3466 14.0575 25.2339 20.343 23.664L20.2218 23.1789C13.9012 24.7575 8.90739 26.8913 5.48784 29.4183C2.06843 31.9452 0.195068 34.8888 0.195068 38.0804H0.695068ZM20.3428 23.664L22.0342 23.2426L21.9133 22.7574L20.222 23.1789L20.3428 23.664ZM21.7335 23.0691L22.2101 24.7266L22.6906 24.5884L22.214 22.9309L21.7335 23.0691ZM22.2104 24.7279C23.4914 29.0892 25.1297 33.3401 27.1093 37.4383L27.5595 37.2208C25.5919 33.1473 23.9634 28.922 22.6902 24.587L22.2104 24.7279ZM27.109 37.4377L27.4709 38.1921L27.9217 37.9758L27.5598 37.2214L27.109 37.4377ZM27.4709 37.9758L27.109 38.7302L27.5598 38.9464L27.9217 38.1921L27.4709 37.9758ZM27.1094 38.7294C25.1264 42.8263 23.4879 47.0776 22.2104 51.4401L22.6902 51.5807C23.96 47.2447 25.5885 43.0193 27.5594 38.9472L27.1094 38.7294ZM22.2101 51.4412L21.7335 53.0951L22.214 53.2336L22.6905 51.5796L22.2101 51.4412ZM19.4308 27.0516C14.6242 28.3858 10.7296 30.0777 8.03059 31.9566C5.34179 33.8284 3.78557 35.9257 3.78557 38.0804H4.28557C4.28557 36.1763 5.66947 34.2095 8.31626 32.367C10.9528 30.5316 14.7893 28.8589 19.5645 27.5334L19.4308 27.0516ZM3.78557 38.0804C3.78557 40.2334 5.34187 42.3298 8.03059 44.2015C10.7296 46.0804 14.6241 47.7732 19.4307 49.1092L19.5646 48.6274C14.7893 47.3001 10.9529 45.6266 8.31626 43.7911C5.66939 41.9485 4.28557 39.9826 4.28557 38.0804H3.78557ZM19.7359 48.9441C20.9044 45.271 22.3152 41.6776 23.9593 38.1869L23.507 37.9739C21.8535 41.4845 20.4346 45.0984 19.2594 48.7925L19.7359 48.9441ZM23.9593 37.9737C22.3133 34.4839 20.9025 30.8905 19.7359 27.2168L19.2594 27.3681C20.4326 31.063 21.8516 34.6772 23.507 38.187L23.9593 37.9737ZM65.1567 53.0954L64.6801 51.4344L64.1995 51.5723L64.6761 53.2333L65.1567 53.0954ZM64.6797 51.4329C63.4001 47.0717 61.7604 42.8218 59.7772 38.7258L59.3271 38.9437C61.2983 43.0149 62.9281 47.239 64.1999 51.5737L64.6797 51.4329ZM59.7776 38.7266L59.4156 37.9723L58.9648 38.1885L59.3268 38.9429L59.7776 38.7266ZM59.4156 38.1885L59.7776 37.4342L59.3268 37.2179L58.9648 37.9723L59.4156 38.1885ZM59.7772 37.4349C61.7596 33.3374 63.3993 29.0864 64.6797 24.7243L64.1999 24.5835C62.9273 28.9191 61.2976 33.1444 59.3271 37.2171L59.7772 37.4349ZM64.6801 24.723L65.1567 23.0655L64.6761 22.9273L64.1996 24.5848L64.6801 24.723ZM64.8561 23.239L66.551 23.6605L66.6716 23.1753L64.9767 22.7538L64.8561 23.239ZM66.5507 23.6604C72.8344 25.2303 77.7584 27.343 81.1056 29.8173C84.4528 32.2916 86.1951 35.1041 86.1951 38.0804H86.6951C86.6951 34.8871 84.8218 31.9426 81.4028 29.4152C77.9837 26.8878 72.9908 24.754 66.6719 23.1753L66.5507 23.6604ZM86.1951 38.0804C86.1951 41.0566 84.4528 43.8682 81.1056 46.3417C77.7585 48.8151 72.8345 50.9269 66.5507 52.4968L66.6719 52.9819C72.9908 51.4032 77.9836 49.2704 81.4027 46.7438C84.8217 44.2173 86.6951 41.2738 86.6951 38.0804H86.1951ZM66.5505 52.4969L64.8556 52.9219L64.9772 53.4068L66.6721 52.9818L66.5505 52.4969ZM62.9305 38.1863C64.6464 41.8572 66.0647 45.4628 67.1539 48.943L67.6311 48.7936C66.5344 45.2897 65.1076 41.6632 63.3835 37.9745L62.9305 38.1863ZM67.4594 49.1092C72.2678 47.7732 76.1624 46.0804 78.8609 44.2015C81.5492 42.3297 83.1046 40.2333 83.1046 38.0804H82.6046C82.6046 39.9827 81.2216 41.9486 78.5752 43.7911C75.9391 45.6266 72.1026 47.3001 67.3256 48.6274L67.4594 49.1092ZM83.1046 38.0804C83.1046 35.9257 81.5483 33.8293 78.8595 31.958C76.1605 30.0795 72.266 28.3876 67.4594 27.0516L67.3255 27.5333C72.1009 28.8607 75.9373 30.5333 78.5739 32.3683C81.2207 34.2105 82.6046 36.1764 82.6046 38.0804H83.1046ZM67.1542 27.2168C65.9873 30.8903 64.5765 34.4838 62.9309 37.9738L63.3831 38.187C65.0382 34.677 66.4571 31.0629 67.6308 27.3682L67.1542 27.2168ZM19.7128 27.2055L19.2362 25.5516L18.7558 25.69L19.2323 27.344L19.7128 27.2055ZM19.2363 25.5518C17.4695 19.3966 16.8605 14.1341 17.358 10.0384C17.8554 5.94356 19.4526 3.04764 22.0689 1.55634L21.8213 1.12195C19.0195 2.71898 17.3703 5.79076 16.8616 9.97811C16.3531 14.1646 16.9786 19.4988 18.7557 25.6898L19.2363 25.5518ZM22.069 1.55629C24.632 0.0940703 28.0046 0.206974 31.8813 1.8409C35.7557 3.47384 40.0972 6.61285 44.5534 11.1338L44.9095 10.7828C40.4254 6.23356 36.0307 3.04715 32.0755 1.38015C28.1226 -0.285878 24.5722 -0.447452 21.8212 1.12199L22.069 1.55629ZM44.5534 11.1338L45.7718 12.3698L46.1279 12.0189L44.9095 10.7828L44.5534 11.1338ZM45.7718 12.0189L44.5534 13.2549L44.9095 13.6059L46.1279 12.3698L45.7718 12.0189ZM44.5523 13.256C41.3661 16.5298 38.4549 20.0546 35.8476 23.7956L36.2578 24.0815C38.8495 20.3629 41.7433 16.859 44.9106 13.6048L44.5523 13.256ZM35.8486 23.7941L35.3648 24.4776L35.773 24.7665L36.2567 24.0829L35.8486 23.7941ZM35.5479 24.3729L34.7059 24.4438L34.7478 24.942L35.5899 24.8712L35.5479 24.3729ZM34.7074 24.4436C30.1214 24.801 25.5723 25.5256 21.1049 26.6104L21.2229 27.0962C25.6643 26.0178 30.1869 25.2974 34.7462 24.9421L34.7074 24.4436ZM21.1035 26.6107L19.4121 27.0322L19.533 27.5173L21.2243 27.0959L21.1035 26.6107ZM26.2666 3.54352C25.2703 3.54352 24.377 3.75681 23.6168 4.18887L23.8638 4.62358C24.5369 4.24106 25.3422 4.04352 26.2666 4.04352V3.54352ZM23.6166 4.18901C21.7281 5.26496 20.6649 7.64142 20.3663 10.8764C20.0666 14.1225 20.5289 18.2969 21.7603 23.073L22.2445 22.9482C21.0213 18.2043 20.5716 14.0912 20.8641 10.9224C21.1577 7.7426 22.1907 5.57687 23.8641 4.62344L23.6166 4.18901ZM22.0561 23.2548C25.8641 22.4175 29.7233 21.8264 33.6092 21.4853L33.5655 20.9872C29.6582 21.3302 25.7777 21.9245 21.9487 22.7664L22.0561 23.2548ZM33.791 21.3812C36.0329 18.2306 38.4822 15.2293 41.1232 12.3967L40.7575 12.0557C38.1016 14.9044 35.6383 17.9227 33.3836 21.0913L33.791 21.3812ZM41.1137 12.0461C38.3083 9.3462 35.5715 7.2242 33.0535 5.77575C30.5395 4.32953 28.224 3.54352 26.2666 3.54352V4.04352C28.1003 4.04352 30.3267 4.78397 32.8042 6.20915C35.2778 7.6321 37.9823 9.72646 40.767 12.4064L41.1137 12.0461ZM60.6272 75.6589C60.6271 75.6589 60.6271 75.6589 60.6271 75.6589C60.6271 75.6589 60.6271 75.6589 60.6271 75.6589C60.6271 75.6589 60.6271 75.6589 60.6271 75.6589C60.6271 75.6589 60.6271 75.6589 60.6271 75.6589C60.6271 75.6589 60.6271 75.6589 60.627 75.6589C60.627 75.6589 60.627 75.6589 60.627 75.6589C60.627 75.6589 60.627 75.6589 60.627 75.6589C60.627 75.6589 60.627 75.6589 60.627 75.6589C60.627 75.6589 60.627 75.6589 60.627 75.6589C60.627 75.6589 60.627 75.6589 60.6269 75.6589C60.6269 75.6589 60.6269 75.6589 60.6269 75.6589C60.6269 75.6589 60.6269 75.6589 60.6269 75.6589C60.6269 75.6589 60.6269 75.6589 60.6269 75.6589C60.6269 75.6589 60.6269 75.6589 60.6269 75.6589C60.6269 75.6589 60.6269 75.6589 60.6268 75.6589C60.6268 75.6589 60.6268 75.6589 60.6268 75.6589C60.6268 75.6589 60.6268 75.6589 60.6268 75.6589C60.6268 75.6589 60.6268 75.6589 60.6268 75.6589C60.6268 75.6589 60.6268 75.6589 60.6268 75.6589C60.6268 75.6589 60.6268 75.6589 60.6267 75.6589C60.6267 75.6589 60.6267 75.6589 60.6267 75.6589C60.6267 75.6589 60.6267 75.6589 60.6267 75.6589C60.6267 75.6589 60.6267 75.6589 60.6267 75.6589C60.6267 75.6589 60.6267 75.6589 60.6267 75.6589C60.6267 75.6589 60.6267 75.6589 60.6267 75.6589C60.6266 75.6589 60.6266 75.6589 60.6266 75.6589C60.6266 75.6589 60.6266 75.6589 60.6266 75.6589C60.6266 75.6589 60.6266 75.6589 60.6266 75.6589C60.6266 75.6589 60.6266 75.6589 60.6266 75.6589C60.6266 75.6589 60.6266 75.6589 60.6266 75.6589C60.6266 75.6589 60.6265 75.6589 60.6265 75.6589C60.6265 75.6589 60.6265 75.6589 60.6265 75.6589C60.6265 75.6589 60.6265 75.6589 60.6265 75.6589C60.6265 75.6589 60.6265 75.6589 60.6265 75.6589C60.6265 75.6589 60.6265 75.6589 60.6265 75.6589C60.6265 75.6589 60.6265 75.6589 60.6264 75.6589C60.6264 75.6589 60.6264 75.6589 60.6264 75.6589C60.6264 75.6589 60.6264 75.6589 60.6264 75.6589C60.6264 75.6589 60.6264 75.6589 60.6264 75.6589C60.6264 75.6589 60.6264 75.6589 60.6264 75.6589C60.6264 75.6589 60.6264 75.6589 60.6264 75.6589C60.6264 75.6589 60.6263 75.6589 60.6263 75.6589C60.6263 75.6589 60.6263 75.6589 60.6263 75.6589C60.6263 75.6589 60.6263 75.6589 60.6263 75.6589C60.6263 75.6589 60.6263 75.6589 60.6263 75.6589C60.6263 75.6589 60.6263 75.6589 60.6263 75.6589C60.6263 75.6589 60.6263 75.6589 60.6263 75.6589C60.6262 75.6589 60.6262 75.6589 60.6262 75.6589C60.6262 75.6589 60.6262 75.6589 60.6262 75.6589C60.6262 75.6589 60.6262 75.6589 60.6262 75.6589C60.6262 75.6589 60.6262 75.6589 60.6262 75.6589C60.6262 75.6589 60.6262 75.6589 60.6262 75.6589C60.6262 75.6589 60.6262 75.6589 60.6262 75.6589C60.6261 75.6589 60.6261 75.6589 60.6261 75.6589C60.6261 75.6589 60.6261 75.6589 60.6261 75.6589C60.6261 75.6589 60.6261 75.6589 60.6261 75.6589C60.6261 75.6589 60.6261 75.6589 60.6261 75.6589C60.6261 75.6589 60.6261 75.6589 60.6261 75.6589C60.6261 75.6589 60.6261 75.6589 60.6261 75.6589C60.626 75.6589 60.626 75.6589 60.626 75.6589C60.626 75.6589 60.626 75.6589 60.626 75.6589C60.626 75.6589 60.626 75.6589 60.626 75.6589C60.626 75.6589 60.626 75.6589 60.626 75.6589C60.626 75.6589 60.626 75.6589 60.626 75.6589C60.626 75.6589 60.626 75.6589 60.626 75.6589C60.626 75.6589 60.6259 75.6589 60.6259 75.6589C60.6259 75.6589 60.6259 75.6589 60.6259 75.6589C60.6259 75.6589 60.6259 75.6589 60.6259 75.6589C60.6259 75.6589 60.6259 75.6589 60.6259 75.6589C60.6259 75.6589 60.6259 75.6589 60.6259 75.6589C60.6259 75.6589 60.6259 75.6589 60.6259 75.6589C60.6259 75.6589 60.6259 75.6589 60.6259 75.6589C60.6258 75.6589 60.6258 75.6589 60.6258 75.6589C60.6258 75.6589 60.6258 75.6589 60.6258 75.6589C60.6258 75.6589 60.6258 75.6589 60.6258 75.6589C60.6258 75.6589 60.6258 75.6589 60.6258 75.6589C60.6258 75.6589 60.6258 75.6589 60.6258 75.6589C60.6258 75.6589 60.6258 75.6589 60.6258 75.6589C60.6258 75.6589 60.6258 75.6589 60.6257 75.6589C60.6257 75.6589 60.6257 75.6589 60.6257 75.6589C60.6257 75.6589 60.6257 75.6589 60.6257 75.6589C60.6257 75.6589 60.6257 75.6589 60.6257 75.6589C60.6257 75.6589 60.6257 75.6589 60.6257 75.6589C60.6257 75.6589 60.6257 75.6589 60.6257 75.6589C60.6257 75.6589 60.6257 75.6589 60.6257 75.6589C60.6257 75.6589 60.6257 75.6589 60.6256 75.6589C60.6256 75.6589 60.6256 75.6589 60.6256 75.6589C60.6256 75.6589 60.6256 75.6589 60.6256 75.6589C60.6256 75.6589 60.6256 75.6589 60.6256 75.6589C60.6256 75.6589 60.6256 75.6589 60.6256 75.6589C60.6256 75.6589 60.6256 75.6589 60.6256 75.6589C60.6256 75.6589 60.6256 75.6589 60.6256 75.6589C60.6256 75.6589 60.6256 75.6589 60.6256 75.6589C60.6255 75.6589 60.6255 75.6589 60.6255 75.6589C60.6255 75.6589 60.6255 75.6589 60.6255 75.6589C60.6255 75.6589 60.6255 75.6589 60.6255 75.6589C60.6255 75.6589 60.6255 75.6589 60.6255 75.6589C60.6255 75.6589 60.6255 75.6589 60.6255 75.6589C60.6255 75.6589 60.6255 75.6589 60.6255 75.6589C60.6255 75.6589 60.6255 75.6589 60.6255 75.6589C60.6255 75.6589 60.6255 75.6589 60.6255 75.6589C60.6254 75.6589 60.6254 75.6589 60.6254 75.6589C60.6254 75.6589 60.6254 75.6589 60.6254 75.6589C60.6254 75.6589 60.6254 75.6589 60.6254 75.6589C60.6254 75.6589 60.6254 75.6589 60.6254 75.6589C60.6254 75.6589 60.6254 75.6589 60.6254 75.6589C60.6254 75.6589 60.6254 75.6589 60.6254 75.6589C60.6254 75.6589 60.6254 75.6589 60.6254 75.6589C60.6254 75.6589 60.6254 75.6589 60.6254 75.6589C60.6253 75.6589 60.6253 75.6589 60.6253 75.6589C60.6253 75.6589 60.6253 75.6589 60.6253 75.6589C60.6253 75.6589 60.6253 75.6589 60.6253 75.6589C60.6253 75.6589 60.6253 75.6589 60.6253 75.6589C60.6253 75.6589 60.6253 75.6589 60.6253 75.6589C60.6253 75.6589 60.6253 75.6589 60.6253 75.6589C60.6253 75.6589 60.6253 75.6589 60.6253 75.6589C60.6253 75.6589 60.6253 75.6589 60.6253 75.6589C60.6253 75.6589 60.6252 75.6589 60.6252 75.6589C60.6252 75.6589 60.6252 75.6589 60.6252 75.6589C60.6252 75.6589 60.6252 75.6589 60.6252 75.6589C60.6252 75.6589 60.6252 75.6589 60.6252 75.6589C60.6252 75.6589 60.6252 75.6589 60.6252 75.6589C60.6252 75.6589 60.6252 75.6589 60.6252 75.6589C60.6252 75.6589 60.6252 75.6589 60.6252 75.6589C60.6252 75.6589 60.6252 75.6589 60.6252 75.6589C60.6252 75.6589 60.6252 75.6589 60.6252 75.6589C60.6252 75.6589 60.6251 75.6589 60.6251 75.6589C60.6251 75.6589 60.6251 75.6589 60.6251 75.6589C60.6251 75.6589 60.6251 75.6589 60.6251 75.6589C60.6251 75.6589 60.6251 75.6589 60.6251 75.6589C60.6251 75.6589 60.6251 75.6589 60.6251 75.6589C60.6251 75.6589 60.6251 75.6589 60.6251 75.6589C60.6251 75.6589 60.6251 75.6589 60.6251 75.6589C60.6251 75.6589 60.6251 75.6589 60.6251 75.6589C60.6251 75.6589 60.6251 75.6589 60.6251 75.6589C60.6251 75.6589 60.6251 75.6589 60.6251 75.6589C60.625 75.6589 60.625 75.6589 60.625 75.6589C60.625 75.6589 60.625 75.6589 60.625 75.6589C60.625 75.6589 60.625 75.6589 60.625 75.6589C60.625 75.6589 60.625 75.6589 60.625 75.6589C60.625 75.6589 60.625 75.6589 60.625 75.6589C60.625 75.6589 60.625 75.6589 60.625 75.6589C60.625 75.6589 60.625 75.6589 60.625 75.6589C60.625 75.6589 60.625 75.6589 60.625 75.6589C60.625 75.6589 60.625 75.6589 60.625 75.6589C60.625 75.6589 60.625 75.6589 60.625 75.6589C60.625 75.6589 60.625 75.6589 60.625 75.6589C60.6249 75.6589 60.6249 75.6589 60.6249 75.6589C60.6249 75.6589 60.6249 75.6589 60.6249 75.6589C60.6249 75.6589 60.6249 75.6589 60.6249 75.6589C60.6249 75.6589 60.6249 75.6589 60.6249 75.6589C60.6249 75.6589 60.6249 75.6589 60.6249 75.6589C60.6249 75.6589 60.6249 75.6589 60.6249 75.6589C60.6249 75.6589 60.6249 75.6589 60.6249 75.6589C60.6249 75.6589 60.6249 75.6589 60.6249 75.6589C60.6249 75.6589 60.6249 75.6589 60.6249 75.6589C60.6249 75.6589 60.6249 75.6589 60.6249 75.6589C60.6249 75.6589 60.6249 75.6589 60.6249 75.6589C60.6249 75.6589 60.6249 75.6589 60.6248 75.6589C60.6248 75.6589 60.6248 75.6589 60.6248 75.6589C60.6248 75.6589 60.6248 75.6589 60.6248 75.6589C60.6248 75.6589 60.6248 75.6589 60.6248 75.6589C60.6248 75.6589 60.6248 75.6589 60.6248 75.6589C60.6248 75.6589 60.6248 75.6589 60.6248 75.6589C60.6248 75.6589 60.6248 75.6589 60.6248 75.6589C60.6248 75.6589 60.6248 75.6589 60.6248 75.6589C60.6248 75.6589 60.6248 75.6589 60.6248 75.6589H60.6248C60.6248 75.6589 60.6248 75.6589 60.6248 75.6589C60.6248 75.6589 60.6248 75.6589 60.6248 75.6589C60.6248 75.6589 60.6248 75.6589 60.6248 75.6589C60.6248 75.6589 60.6248 75.6589 60.6248 75.6589C60.6248 75.6589 60.6247 75.6589 60.6247 75.6589H60.6247C60.6247 75.6589 60.6247 75.6589 60.6247 75.6589C60.6247 75.6589 60.6247 75.6589 60.6247 75.6589C60.6247 75.6589 60.6247 75.6589 60.6247 75.6589H60.6247C60.6247 75.6589 60.6247 75.6589 60.6247 75.6589C60.6247 75.6589 60.6247 75.6589 60.6247 75.6589H60.6247C60.6247 75.6589 60.6247 75.6589 60.6247 75.6589H60.6247C60.6247 75.6589 60.6247 75.6589 60.6247 75.6589C60.6247 75.6589 60.6247 75.6589 60.6247 75.6589H60.6247C60.6247 75.6589 60.6247 75.6589 60.6247 75.6589H60.6247C60.6246 75.6589 60.6246 75.6589 60.6246 75.6589C60.6246 75.6589 60.6246 75.6589 60.6246 75.6589H60.6246C60.6246 75.6589 60.6246 75.6589 60.6246 75.6589H60.6246C60.6246 75.6589 60.6246 75.6589 60.6246 75.6589C60.6246 75.6589 60.6246 75.6589 60.6246 75.6589H60.6246H60.6246C60.6246 75.6589 60.6246 75.6589 60.6246 75.6589C60.6246 75.6589 60.6246 75.6589 60.6246 75.6589H60.6246H60.6246C60.6246 75.6589 60.6246 75.6589 60.6246 75.6589C60.6246 75.6589 60.6246 75.6589 60.6246 75.6589C60.6246 75.6589 60.6246 75.6589 60.6246 75.6589C60.6246 75.6589 60.6246 75.6589 60.6246 75.6589H60.6246H60.6246H60.6246H60.6246H60.6245H60.6245H60.6245H60.6245C60.6245 75.6589 60.6245 75.6589 60.6245 75.6589C60.6245 75.6589 60.6245 75.6589 60.6245 75.6589C60.6245 75.6589 60.6245 75.6589 60.6245 75.6589C60.6245 75.6589 60.6245 75.6589 60.6245 75.6589H60.6245H60.6245C60.6245 75.6589 60.6245 75.6589 60.6245 75.6589C60.6245 75.6589 60.6245 75.6589 60.6245 75.6589C60.6245 75.6589 60.6245 75.6589 60.6245 75.6589C60.6245 75.6589 60.6245 75.6589 60.6245 75.6589C60.6245 75.6589 60.6245 75.6589 60.6245 75.6589C60.6245 75.6589 60.6245 75.6589 60.6245 75.6589C60.6245 75.6589 60.6245 75.6589 60.6245 75.6589C60.6245 75.6589 60.6245 75.6589 60.6245 75.6589C60.6245 75.6589 60.6245 75.6589 60.6245 75.6589C60.6245 75.6589 60.6245 75.6589 60.6245 75.6589H60.6245H60.6245C60.6245 75.6589 60.6245 75.6589 60.6245 75.6589C60.6245 75.6589 60.6245 75.6589 60.6245 75.6589C60.6245 75.6589 60.6245 75.6589 60.6245 75.9089C60.6245 76.1589 60.6245 76.1589 60.6245 76.1589C60.6245 76.1589 60.6245 76.1589 60.6245 76.1589C60.6245 76.1589 60.6245 76.1589 60.6245 76.1589H60.6245H60.6245C60.6245 76.1589 60.6245 76.1589 60.6245 76.1589C60.6245 76.1589 60.6245 76.1589 60.6245 76.1589C60.6245 76.1589 60.6245 76.1589 60.6245 76.1589C60.6245 76.1589 60.6245 76.1589 60.6245 76.1589C60.6245 76.1589 60.6245 76.1589 60.6245 76.1589C60.6245 76.1589 60.6245 76.1589 60.6245 76.1589C60.6245 76.1589 60.6245 76.1589 60.6245 76.1589C60.6245 76.1589 60.6245 76.1589 60.6245 76.1589C60.6245 76.1589 60.6245 76.1589 60.6245 76.1589C60.6245 76.1589 60.6245 76.1589 60.6245 76.1589H60.6245H60.6245C60.6245 76.1589 60.6245 76.1589 60.6245 76.1589C60.6245 76.1589 60.6245 76.1589 60.6245 76.1589C60.6245 76.1589 60.6245 76.1589 60.6245 76.1589C60.6245 76.1589 60.6245 76.1589 60.6245 76.1589H60.6245H60.6245H60.6245H60.6246H60.6246H60.6246H60.6246H60.6246C60.6246 76.1589 60.6246 76.1589 60.6246 76.1589C60.6246 76.1589 60.6246 76.1589 60.6246 76.1589C60.6246 76.1589 60.6246 76.1589 60.6246 76.1589C60.6246 76.1589 60.6246 76.1589 60.6246 76.1589H60.6246H60.6246C60.6246 76.1589 60.6246 76.1589 60.6246 76.1589C60.6246 76.1589 60.6246 76.1589 60.6246 76.1589H60.6246H60.6246C60.6246 76.1589 60.6246 76.1589 60.6246 76.1589C60.6246 76.1589 60.6246 76.1589 60.6246 76.1589H60.6246C60.6246 76.1589 60.6246 76.1589 60.6246 76.1589H60.6246C60.6246 76.1589 60.6246 76.1589 60.6246 76.1589C60.6246 76.1589 60.6246 76.1589 60.6247 76.1589H60.6247C60.6247 76.1589 60.6247 76.1589 60.6247 76.1589H60.6247C60.6247 76.1589 60.6247 76.1589 60.6247 76.1589C60.6247 76.1589 60.6247 76.1589 60.6247 76.1589H60.6247C60.6247 76.1589 60.6247 76.1589 60.6247 76.1589H60.6247C60.6247 76.1589 60.6247 76.1589 60.6247 76.1589C60.6247 76.1589 60.6247 76.1589 60.6247 76.1589H60.6247C60.6247 76.1589 60.6247 76.1589 60.6247 76.1589C60.6247 76.1589 60.6247 76.1589 60.6247 76.1589C60.6247 76.1589 60.6247 76.1589 60.6247 76.1589H60.6247C60.6247 76.1589 60.6248 76.1589 60.6248 76.1589C60.6248 76.1589 60.6248 76.1589 60.6248 76.1589C60.6248 76.1589 60.6248 76.1589 60.6248 76.1589C60.6248 76.1589 60.6248 76.1589 60.6248 76.1589C60.6248 76.1589 60.6248 76.1589 60.6248 76.1589H60.6248C60.6248 76.1589 60.6248 76.1589 60.6248 76.1589C60.6248 76.1589 60.6248 76.1589 60.6248 76.1589C60.6248 76.1589 60.6248 76.1589 60.6248 76.1589C60.6248 76.1589 60.6248 76.1589 60.6248 76.1589C60.6248 76.1589 60.6248 76.1589 60.6248 76.1589C60.6248 76.1589 60.6248 76.1589 60.6248 76.1589C60.6248 76.1589 60.6248 76.1589 60.6248 76.1589C60.6248 76.1589 60.6248 76.1589 60.6248 76.1589C60.6249 76.1589 60.6249 76.1589 60.6249 76.1589C60.6249 76.1589 60.6249 76.1589 60.6249 76.1589C60.6249 76.1589 60.6249 76.1589 60.6249 76.1589C60.6249 76.1589 60.6249 76.1589 60.6249 76.1589C60.6249 76.1589 60.6249 76.1589 60.6249 76.1589C60.6249 76.1589 60.6249 76.1589 60.6249 76.1589C60.6249 76.1589 60.6249 76.1589 60.6249 76.1589C60.6249 76.1589 60.6249 76.1589 60.6249 76.1589C60.6249 76.1589 60.6249 76.1589 60.6249 76.1589C60.6249 76.1589 60.6249 76.1589 60.6249 76.1589C60.6249 76.1589 60.6249 76.1589 60.6249 76.1589C60.6249 76.1589 60.6249 76.1589 60.625 76.1589C60.625 76.1589 60.625 76.1589 60.625 76.1589C60.625 76.1589 60.625 76.1589 60.625 76.1589C60.625 76.1589 60.625 76.1589 60.625 76.1589C60.625 76.1589 60.625 76.1589 60.625 76.1589C60.625 76.1589 60.625 76.1589 60.625 76.1589C60.625 76.1589 60.625 76.1589 60.625 76.1589C60.625 76.1589 60.625 76.1589 60.625 76.1589C60.625 76.1589 60.625 76.1589 60.625 76.1589C60.625 76.1589 60.625 76.1589 60.625 76.1589C60.625 76.1589 60.625 76.1589 60.625 76.1589C60.625 76.1589 60.625 76.1589 60.6251 76.1589C60.6251 76.1589 60.6251 76.1589 60.6251 76.1589C60.6251 76.1589 60.6251 76.1589 60.6251 76.1589C60.6251 76.1589 60.6251 76.1589 60.6251 76.1589C60.6251 76.1589 60.6251 76.1589 60.6251 76.1589C60.6251 76.1589 60.6251 76.1589 60.6251 76.1589C60.6251 76.1589 60.6251 76.1589 60.6251 76.1589C60.6251 76.1589 60.6251 76.1589 60.6251 76.1589C60.6251 76.1589 60.6251 76.1589 60.6251 76.1589C60.6251 76.1589 60.6251 76.1589 60.6251 76.1589C60.6251 76.1589 60.6252 76.1589 60.6252 76.1589C60.6252 76.1589 60.6252 76.1589 60.6252 76.1589C60.6252 76.1589 60.6252 76.1589 60.6252 76.1589C60.6252 76.1589 60.6252 76.1589 60.6252 76.1589C60.6252 76.1589 60.6252 76.1589 60.6252 76.1589C60.6252 76.1589 60.6252 76.1589 60.6252 76.1589C60.6252 76.1589 60.6252 76.1589 60.6252 76.1589C60.6252 76.1589 60.6252 76.1589 60.6252 76.1589C60.6252 76.1589 60.6252 76.1589 60.6252 76.1589C60.6252 76.1589 60.6253 76.1589 60.6253 76.1589C60.6253 76.1589 60.6253 76.1589 60.6253 76.1589C60.6253 76.1589 60.6253 76.1589 60.6253 76.1589C60.6253 76.1589 60.6253 76.1589 60.6253 76.1589C60.6253 76.1589 60.6253 76.1589 60.6253 76.1589C60.6253 76.1589 60.6253 76.1589 60.6253 76.1589C60.6253 76.1589 60.6253 76.1589 60.6253 76.1589C60.6253 76.1589 60.6253 76.1589 60.6253 76.1589C60.6253 76.1589 60.6253 76.1589 60.6254 76.1589C60.6254 76.1589 60.6254 76.1589 60.6254 76.1589C60.6254 76.1589 60.6254 76.1589 60.6254 76.1589C60.6254 76.1589 60.6254 76.1589 60.6254 76.1589C60.6254 76.1589 60.6254 76.1589 60.6254 76.1589C60.6254 76.1589 60.6254 76.1589 60.6254 76.1589C60.6254 76.1589 60.6254 76.1589 60.6254 76.1589C60.6254 76.1589 60.6254 76.1589 60.6254 76.1589C60.6254 76.1589 60.6254 76.1589 60.6255 76.1589C60.6255 76.1589 60.6255 76.1589 60.6255 76.1589C60.6255 76.1589 60.6255 76.1589 60.6255 76.1589C60.6255 76.1589 60.6255 76.1589 60.6255 76.1589C60.6255 76.1589 60.6255 76.1589 60.6255 76.1589C60.6255 76.1589 60.6255 76.1589 60.6255 76.1589C60.6255 76.1589 60.6255 76.1589 60.6255 76.1589C60.6255 76.1589 60.6255 76.1589 60.6255 76.1589C60.6255 76.1589 60.6255 76.1589 60.6256 76.1589C60.6256 76.1589 60.6256 76.1589 60.6256 76.1589C60.6256 76.1589 60.6256 76.1589 60.6256 76.1589C60.6256 76.1589 60.6256 76.1589 60.6256 76.1589C60.6256 76.1589 60.6256 76.1589 60.6256 76.1589C60.6256 76.1589 60.6256 76.1589 60.6256 76.1589C60.6256 76.1589 60.6256 76.1589 60.6256 76.1589C60.6256 76.1589 60.6256 76.1589 60.6256 76.1589C60.6257 76.1589 60.6257 76.1589 60.6257 76.1589C60.6257 76.1589 60.6257 76.1589 60.6257 76.1589C60.6257 76.1589 60.6257 76.1589 60.6257 76.1589C60.6257 76.1589 60.6257 76.1589 60.6257 76.1589C60.6257 76.1589 60.6257 76.1589 60.6257 76.1589C60.6257 76.1589 60.6257 76.1589 60.6257 76.1589C60.6257 76.1589 60.6257 76.1589 60.6257 76.1589C60.6258 76.1589 60.6258 76.1589 60.6258 76.1589C60.6258 76.1589 60.6258 76.1589 60.6258 76.1589C60.6258 76.1589 60.6258 76.1589 60.6258 76.1589C60.6258 76.1589 60.6258 76.1589 60.6258 76.1589C60.6258 76.1589 60.6258 76.1589 60.6258 76.1589C60.6258 76.1589 60.6258 76.1589 60.6258 76.1589C60.6258 76.1589 60.6258 76.1589 60.6259 76.1589C60.6259 76.1589 60.6259 76.1589 60.6259 76.1589C60.6259 76.1589 60.6259 76.1589 60.6259 76.1589C60.6259 76.1589 60.6259 76.1589 60.6259 76.1589C60.6259 76.1589 60.6259 76.1589 60.6259 76.1589C60.6259 76.1589 60.6259 76.1589 60.6259 76.1589C60.6259 76.1589 60.6259 76.1589 60.6259 76.1589C60.6259 76.1589 60.626 76.1589 60.626 76.1589C60.626 76.1589 60.626 76.1589 60.626 76.1589C60.626 76.1589 60.626 76.1589 60.626 76.1589C60.626 76.1589 60.626 76.1589 60.626 76.1589C60.626 76.1589 60.626 76.1589 60.626 76.1589C60.626 76.1589 60.626 76.1589 60.626 76.1589C60.626 76.1589 60.626 76.1589 60.6261 76.1589C60.6261 76.1589 60.6261 76.1589 60.6261 76.1589C60.6261 76.1589 60.6261 76.1589 60.6261 76.1589C60.6261 76.1589 60.6261 76.1589 60.6261 76.1589C60.6261 76.1589 60.6261 76.1589 60.6261 76.1589C60.6261 76.1589 60.6261 76.1589 60.6261 76.1589C60.6261 76.1589 60.6261 76.1589 60.6262 76.1589C60.6262 76.1589 60.6262 76.1589 60.6262 76.1589C60.6262 76.1589 60.6262 76.1589 60.6262 76.1589C60.6262 76.1589 60.6262 76.1589 60.6262 76.1589C60.6262 76.1589 60.6262 76.1589 60.6262 76.1589C60.6262 76.1589 60.6262 76.1589 60.6262 76.1589C60.6262 76.1589 60.6262 76.1589 60.6263 76.1589C60.6263 76.1589 60.6263 76.1589 60.6263 76.1589C60.6263 76.1589 60.6263 76.1589 60.6263 76.1589C60.6263 76.1589 60.6263 76.1589 60.6263 76.1589C60.6263 76.1589 60.6263 76.1589 60.6263 76.1589C60.6263 76.1589 60.6263 76.1589 60.6263 76.1589C60.6263 76.1589 60.6264 76.1589 60.6264 76.1589C60.6264 76.1589 60.6264 76.1589 60.6264 76.1589C60.6264 76.1589 60.6264 76.1589 60.6264 76.1589C60.6264 76.1589 60.6264 76.1589 60.6264 76.1589C60.6264 76.1589 60.6264 76.1589 60.6264 76.1589C60.6264 76.1589 60.6264 76.1589 60.6264 76.1589C60.6265 76.1589 60.6265 76.1589 60.6265 76.1589C60.6265 76.1589 60.6265 76.1589 60.6265 76.1589C60.6265 76.1589 60.6265 76.1589 60.6265 76.1589C60.6265 76.1589 60.6265 76.1589 60.6265 76.1589C60.6265 76.1589 60.6265 76.1589 60.6265 76.1589C60.6265 76.1589 60.6266 76.1589 60.6266 76.1589C60.6266 76.1589 60.6266 76.1589 60.6266 76.1589C60.6266 76.1589 60.6266 76.1589 60.6266 76.1589C60.6266 76.1589 60.6266 76.1589 60.6266 76.1589C60.6266 76.1589 60.6266 76.1589 60.6266 76.1589C60.6266 76.1589 60.6266 76.1589 60.6267 76.1589C60.6267 76.1589 60.6267 76.1589 60.6267 76.1589C60.6267 76.1589 60.6267 76.1589 60.6267 76.1589C60.6267 76.1589 60.6267 76.1589 60.6267 76.1589C60.6267 76.1589 60.6267 76.1589 60.6267 76.1589C60.6267 76.1589 60.6267 76.1589 60.6267 76.1589C60.6268 76.1589 60.6268 76.1589 60.6268 76.1589C60.6268 76.1589 60.6268 76.1589 60.6268 76.1589C60.6268 76.1589 60.6268 76.1589 60.6268 76.1589C60.6268 76.1589 60.6268 76.1589 60.6268 76.1589C60.6268 76.1589 60.6268 76.1589 60.6268 76.1589C60.6269 76.1589 60.6269 76.1589 60.6269 76.1589C60.6269 76.1589 60.6269 76.1589 60.6269 76.1589C60.6269 76.1589 60.6269 76.1589 60.6269 76.1589C60.6269 76.1589 60.6269 76.1589 60.6269 76.1589C60.6269 76.1589 60.6269 76.1589 60.6269 76.1589C60.627 76.1589 60.627 76.1589 60.627 76.1589C60.627 76.1589 60.627 76.1589 60.627 76.1589C60.627 76.1589 60.627 76.1589 60.627 76.1589C60.627 76.1589 60.627 76.1589 60.627 76.1589C60.627 76.1589 60.627 76.1589 60.627 76.1589C60.6271 76.1589 60.6271 76.1589 60.6271 76.1589C60.6271 76.1589 60.6271 76.1589 60.6271 76.1589C60.6271 76.1589 60.6271 76.1589 60.6271 76.1589C60.6271 76.1589 60.6271 76.1589 60.6271 76.1589C60.6271 76.1589 60.6271 76.1589 60.6272 76.1589V75.6589C60.6271 75.6589 60.6271 75.6589 60.6271 75.6589C60.6271 75.6589 60.6271 75.6589 60.6271 75.6589C60.6271 75.6589 60.6271 75.6589 60.6271 75.6589C60.6271 75.6589 60.6271 75.6589 60.6271 75.6589C60.6271 75.6589 60.6271 75.6589 60.627 75.6589C60.627 75.6589 60.627 75.6589 60.627 75.6589C60.627 75.6589 60.627 75.6589 60.627 75.6589C60.627 75.6589 60.627 75.6589 60.627 75.6589C60.627 75.6589 60.627 75.6589 60.627 75.6589C60.627 75.6589 60.627 75.6589 60.6269 75.6589C60.6269 75.6589 60.6269 75.6589 60.6269 75.6589C60.6269 75.6589 60.6269 75.6589 60.6269 75.6589C60.6269 75.6589 60.6269 75.6589 60.6269 75.6589C60.6269 75.6589 60.6269 75.6589 60.6269 75.6589C60.6269 75.6589 60.6269 75.6589 60.6268 75.6589C60.6268 75.6589 60.6268 75.6589 60.6268 75.6589C60.6268 75.6589 60.6268 75.6589 60.6268 75.6589C60.6268 75.6589 60.6268 75.6589 60.6268 75.6589C60.6268 75.6589 60.6268 75.6589 60.6268 75.6589C60.6268 75.6589 60.6268 75.6589 60.6267 75.6589C60.6267 75.6589 60.6267 75.6589 60.6267 75.6589C60.6267 75.6589 60.6267 75.6589 60.6267 75.6589C60.6267 75.6589 60.6267 75.6589 60.6267 75.6589C60.6267 75.6589 60.6267 75.6589 60.6267 75.6589C60.6267 75.6589 60.6267 75.6589 60.6267 75.6589C60.6266 75.6589 60.6266 75.6589 60.6266 75.6589C60.6266 75.6589 60.6266 75.6589 60.6266 75.6589C60.6266 75.6589 60.6266 75.6589 60.6266 75.6589C60.6266 75.6589 60.6266 75.6589 60.6266 75.6589C60.6266 75.6589 60.6266 75.6589 60.6266 75.6589C60.6266 75.6589 60.6265 75.6589 60.6265 75.6589C60.6265 75.6589 60.6265 75.6589 60.6265 75.6589C60.6265 75.6589 60.6265 75.6589 60.6265 75.6589C60.6265 75.6589 60.6265 75.6589 60.6265 75.6589C60.6265 75.6589 60.6265 75.6589 60.6265 75.6589C60.6265 75.6589 60.6265 75.6589 60.6264 75.6589C60.6264 75.6589 60.6264 75.6589 60.6264 75.6589C60.6264 75.6589 60.6264 75.6589 60.6264 75.6589C60.6264 75.6589 60.6264 75.6589 60.6264 75.6589C60.6264 75.6589 60.6264 75.6589 60.6264 75.6589C60.6264 75.6589 60.6264 75.6589 60.6264 75.6589C60.6264 75.6589 60.6263 75.6589 60.6263 75.6589C60.6263 75.6589 60.6263 75.6589 60.6263 75.6589C60.6263 75.6589 60.6263 75.6589 60.6263 75.6589C60.6263 75.6589 60.6263 75.6589 60.6263 75.6589C60.6263 75.6589 60.6263 75.6589 60.6263 75.6589C60.6263 75.6589 60.6263 75.6589 60.6263 75.6589C60.6262 75.6589 60.6262 75.6589 60.6262 75.6589C60.6262 75.6589 60.6262 75.6589 60.6262 75.6589C60.6262 75.6589 60.6262 75.6589 60.6262 75.6589C60.6262 75.6589 60.6262 75.6589 60.6262 75.6589C60.6262 75.6589 60.6262 75.6589 60.6262 75.6589C60.6262 75.6589 60.6262 75.6589 60.6262 75.6589C60.6261 75.6589 60.6261 75.6589 60.6261 75.6589C60.6261 75.6589 60.6261 75.6589 60.6261 75.6589C60.6261 75.6589 60.6261 75.6589 60.6261 75.6589C60.6261 75.6589 60.6261 75.6589 60.6261 75.6589C60.6261 75.6589 60.6261 75.6589 60.6261 75.6589C60.6261 75.6589 60.6261 75.6589 60.6261 75.6589C60.626 75.6589 60.626 75.6589 60.626 75.6589C60.626 75.6589 60.626 75.6589 60.626 75.6589C60.626 75.6589 60.626 75.6589 60.626 75.6589C60.626 75.6589 60.626 75.6589 60.626 75.6589C60.626 75.6589 60.626 75.6589 60.626 75.6589C60.626 75.6589 60.626 75.6589 60.626 75.6589C60.626 75.6589 60.6259 75.6589 60.6259 75.6589C60.6259 75.6589 60.6259 75.6589 60.6259 75.6589C60.6259 75.6589 60.6259 75.6589 60.6259 75.6589C60.6259 75.6589 60.6259 75.6589 60.6259 75.6589C60.6259 75.6589 60.6259 75.6589 60.6259 75.6589C60.6259 75.6589 60.6259 75.6589 60.6259 75.6589C60.6259 75.6589 60.6259 75.6589 60.6259 75.6589C60.6258 75.6589 60.6258 75.6589 60.6258 75.6589C60.6258 75.6589 60.6258 75.6589 60.6258 75.6589C60.6258 75.6589 60.6258 75.6589 60.6258 75.6589C60.6258 75.6589 60.6258 75.6589 60.6258 75.6589C60.6258 75.6589 60.6258 75.6589 60.6258 75.6589C60.6258 75.6589 60.6258 75.6589 60.6258 75.6589C60.6258 75.6589 60.6258 75.6589 60.6257 75.6589C60.6257 75.6589 60.6257 75.6589 60.6257 75.6589C60.6257 75.6589 60.6257 75.6589 60.6257 75.6589C60.6257 75.6589 60.6257 75.6589 60.6257 75.6589C60.6257 75.6589 60.6257 75.6589 60.6257 75.6589C60.6257 75.6589 60.6257 75.6589 60.6257 75.6589C60.6257 75.6589 60.6257 75.6589 60.6257 75.6589C60.6257 75.6589 60.6257 75.6589 60.6256 75.6589C60.6256 75.6589 60.6256 75.6589 60.6256 75.6589C60.6256 75.6589 60.6256 75.6589 60.6256 75.6589C60.6256 75.6589 60.6256 75.6589 60.6256 75.6589C60.6256 75.6589 60.6256 75.6589 60.6256 75.6589C60.6256 75.6589 60.6256 75.6589 60.6256 75.6589C60.6256 75.6589 60.6256 75.6589 60.6256 75.6589C60.6256 75.6589 60.6256 75.6589 60.6256 75.6589C60.6255 75.6589 60.6255 75.6589 60.6255 75.6589C60.6255 75.6589 60.6255 75.6589 60.6255 75.6589C60.6255 75.6589 60.6255 75.6589 60.6255 75.6589C60.6255 75.6589 60.6255 75.6589 60.6255 75.6589C60.6255 75.6589 60.6255 75.6589 60.6255 75.6589C60.6255 75.6589 60.6255 75.6589 60.6255 75.6589C60.6255 75.6589 60.6255 75.6589 60.6255 75.6589C60.6255 75.6589 60.6255 75.6589 60.6255 75.6589C60.6254 75.6589 60.6254 75.6589 60.6254 75.6589C60.6254 75.6589 60.6254 75.6589 60.6254 75.6589C60.6254 75.6589 60.6254 75.6589 60.6254 75.6589C60.6254 75.6589 60.6254 75.6589 60.6254 75.6589C60.6254 75.6589 60.6254 75.6589 60.6254 75.6589C60.6254 75.6589 60.6254 75.6589 60.6254 75.6589C60.6254 75.6589 60.6254 75.6589 60.6254 75.6589C60.6254 75.6589 60.6254 75.6589 60.6254 75.6589C60.6253 75.6589 60.6253 75.6589 60.6253 75.6589C60.6253 75.6589 60.6253 75.6589 60.6253 75.6589C60.6253 75.6589 60.6253 75.6589 60.6253 75.6589C60.6253 75.6589 60.6253 75.6589 60.6253 75.6589C60.6253 75.6589 60.6253 75.6589 60.6253 75.6589C60.6253 75.6589 60.6253 75.6589 60.6253 75.6589C60.6253 75.6589 60.6253 75.6589 60.6253 75.6589C60.6253 75.6589 60.6253 75.6589 60.6253 75.6589C60.6253 75.6589 60.6252 75.6589 60.6252 75.6589C60.6252 75.6589 60.6252 75.6589 60.6252 75.6589C60.6252 75.6589 60.6252 75.6589 60.6252 75.6589C60.6252 75.6589 60.6252 75.6589 60.6252 75.6589C60.6252 75.6589 60.6252 75.6589 60.6252 75.6589C60.6252 75.6589 60.6252 75.6589 60.6252 75.6589C60.6252 75.6589 60.6252 75.6589 60.6252 75.6589C60.6252 75.6589 60.6252 75.6589 60.6252 75.6589C60.6252 75.6589 60.6252 75.6589 60.6252 75.6589C60.6252 75.6589 60.6251 75.6589 60.6251 75.6589C60.6251 75.6589 60.6251 75.6589 60.6251 75.6589C60.6251 75.6589 60.6251 75.6589 60.6251 75.6589C60.6251 75.6589 60.6251 75.6589 60.6251 75.6589C60.6251 75.6589 60.6251 75.6589 60.6251 75.6589C60.6251 75.6589 60.6251 75.6589 60.6251 75.6589C60.6251 75.6589 60.6251 75.6589 60.6251 75.6589C60.6251 75.6589 60.6251 75.6589 60.6251 75.6589C60.6251 75.6589 60.6251 75.6589 60.6251 75.6589C60.6251 75.6589 60.6251 75.6589 60.6251 75.6589C60.625 75.6589 60.625 75.6589 60.625 75.6589C60.625 75.6589 60.625 75.6589 60.625 75.6589C60.625 75.6589 60.625 75.6589 60.625 75.6589C60.625 75.6589 60.625 75.6589 60.625 75.6589C60.625 75.6589 60.625 75.6589 60.625 75.6589C60.625 75.6589 60.625 75.6589 60.625 75.6589C60.625 75.6589 60.625 75.6589 60.625 75.6589C60.625 75.6589 60.625 75.6589 60.625 75.6589C60.625 75.6589 60.625 75.6589 60.625 75.6589C60.625 75.6589 60.625 75.6589 60.625 75.6589C60.625 75.6589 60.625 75.6589 60.625 75.6589C60.6249 75.6589 60.6249 75.6589 60.6249 75.6589C60.6249 75.6589 60.6249 75.6589 60.6249 75.6589C60.6249 75.6589 60.6249 75.6589 60.6249 75.6589C60.6249 75.6589 60.6249 75.6589 60.6249 75.6589C60.6249 75.6589 60.6249 75.6589 60.6249 75.6589C60.6249 75.6589 60.6249 75.6589 60.6249 75.6589C60.6249 75.6589 60.6249 75.6589 60.6249 75.6589C60.6249 75.6589 60.6249 75.6589 60.6249 75.6589C60.6249 75.6589 60.6249 75.6589 60.6249 75.6589C60.6249 75.6589 60.6249 75.6589 60.6249 75.6589C60.6249 75.6589 60.6249 75.6589 60.6249 75.6589C60.6249 75.6589 60.6249 75.6589 60.6248 75.6589C60.6248 75.6589 60.6248 75.6589 60.6248 75.6589C60.6248 75.6589 60.6248 75.6589 60.6248 75.6589C60.6248 75.6589 60.6248 75.6589 60.6248 75.6589C60.6248 75.6589 60.6248 75.6589 60.6248 75.6589C60.6248 75.6589 60.6248 75.6589 60.6248 75.6589C60.6248 75.6589 60.6248 75.6589 60.6248 75.6589C60.6248 75.6589 60.6248 75.6589 60.6248 75.6589C60.6248 75.6589 60.6248 75.6589 60.6248 75.6589H60.6248C60.6248 75.6589 60.6248 75.6589 60.6248 75.6589C60.6248 75.6589 60.6248 75.6589 60.6248 75.6589C60.6248 75.6589 60.6248 75.6589 60.6248 75.6589C60.6248 75.6589 60.6248 75.6589 60.6248 75.6589C60.6248 75.6589 60.6247 75.6589 60.6247 75.6589H60.6247C60.6247 75.6589 60.6247 75.6589 60.6247 75.6589C60.6247 75.6589 60.6247 75.6589 60.6247 75.6589C60.6247 75.6589 60.6247 75.6589 60.6247 75.6589H60.6247C60.6247 75.6589 60.6247 75.6589 60.6247 75.6589C60.6247 75.6589 60.6247 75.6589 60.6247 75.6589H60.6247C60.6247 75.6589 60.6247 75.6589 60.6247 75.6589H60.6247C60.6247 75.6589 60.6247 75.6589 60.6247 75.6589C60.6247 75.6589 60.6247 75.6589 60.6247 75.6589H60.6247C60.6247 75.6589 60.6247 75.6589 60.6247 75.6589H60.6247C60.6246 75.6589 60.6246 75.6589 60.6246 75.6589C60.6246 75.6589 60.6246 75.6589 60.6246 75.6589H60.6246C60.6246 75.6589 60.6246 75.6589 60.6246 75.6589H60.6246C60.6246 75.6589 60.6246 75.6589 60.6246 75.6589C60.6246 75.6589 60.6246 75.6589 60.6246 75.6589H60.6246H60.6246C60.6246 75.6589 60.6246 75.6589 60.6246 75.6589C60.6246 75.6589 60.6246 75.6589 60.6246 75.6589H60.6246H60.6246C60.6246 75.6589 60.6246 75.6589 60.6246 75.6589C60.6246 75.6589 60.6246 75.6589 60.6246 75.6589C60.6246 75.6589 60.6246 75.6589 60.6246 75.6589C60.6246 75.6589 60.6246 75.6589 60.6246 75.6589H60.6246H60.6246H60.6246H60.6246H60.6245H60.6245H60.6245H60.6245C60.6245 75.6589 60.6245 75.6589 60.6245 75.6589C60.6245 75.6589 60.6245 75.6589 60.6245 75.6589C60.6245 75.6589 60.6245 75.6589 60.6245 75.6589C60.6245 75.6589 60.6245 75.6589 60.6245 75.6589H60.6245H60.6245C60.6245 75.6589 60.6245 75.6589 60.6245 75.6589C60.6245 75.6589 60.6245 75.6589 60.6245 75.6589C60.6245 75.6589 60.6245 75.6589 60.6245 75.6589C60.6245 75.6589 60.6245 75.6589 60.6245 75.6589C60.6245 75.6589 60.6245 75.6589 60.6245 75.6589C60.6245 75.6589 60.6245 75.6589 60.6245 75.6589C60.6245 75.6589 60.6245 75.6589 60.6245 75.6589C60.6245 75.6589 60.6245 75.6589 60.6245 75.6589C60.6245 75.6589 60.6245 75.6589 60.6245 75.6589C60.6245 75.6589 60.6245 75.6589 60.6245 75.6589H60.6245H60.6245C60.6245 75.6589 60.6245 75.6589 60.6245 75.6589C60.6245 75.6589 60.6245 75.6589 60.6245 75.6589C60.6245 75.6589 60.6245 75.6589 60.6245 75.9089C60.6245 76.1589 60.6245 76.1589 60.6245 76.1589C60.6245 76.1589 60.6245 76.1589 60.6245 76.1589C60.6245 76.1589 60.6245 76.1589 60.6245 76.1589H60.6245H60.6245C60.6245 76.1589 60.6245 76.1589 60.6245 76.1589C60.6245 76.1589 60.6245 76.1589 60.6245 76.1589C60.6245 76.1589 60.6245 76.1589 60.6245 76.1589C60.6245 76.1589 60.6245 76.1589 60.6245 76.1589C60.6245 76.1589 60.6245 76.1589 60.6245 76.1589C60.6245 76.1589 60.6245 76.1589 60.6245 76.1589C60.6245 76.1589 60.6245 76.1589 60.6245 76.1589C60.6245 76.1589 60.6245 76.1589 60.6245 76.1589C60.6245 76.1589 60.6245 76.1589 60.6245 76.1589C60.6245 76.1589 60.6245 76.1589 60.6245 76.1589H60.6245H60.6245C60.6245 76.1589 60.6245 76.1589 60.6245 76.1589C60.6245 76.1589 60.6245 76.1589 60.6245 76.1589C60.6245 76.1589 60.6245 76.1589 60.6245 76.1589C60.6245 76.1589 60.6245 76.1589 60.6245 76.1589H60.6245H60.6245H60.6245H60.6246H60.6246H60.6246H60.6246H60.6246C60.6246 76.1589 60.6246 76.1589 60.6246 76.1589C60.6246 76.1589 60.6246 76.1589 60.6246 76.1589C60.6246 76.1589 60.6246 76.1589 60.6246 76.1589C60.6246 76.1589 60.6246 76.1589 60.6246 76.1589H60.6246H60.6246C60.6246 76.1589 60.6246 76.1589 60.6246 76.1589C60.6246 76.1589 60.6246 76.1589 60.6246 76.1589H60.6246H60.6246C60.6246 76.1589 60.6246 76.1589 60.6246 76.1589C60.6246 76.1589 60.6246 76.1589 60.6246 76.1589H60.6246C60.6246 76.1589 60.6246 76.1589 60.6246 76.1589H60.6246C60.6246 76.1589 60.6246 76.1589 60.6246 76.1589C60.6246 76.1589 60.6246 76.1589 60.6247 76.1589H60.6247C60.6247 76.1589 60.6247 76.1589 60.6247 76.1589H60.6247C60.6247 76.1589 60.6247 76.1589 60.6247 76.1589C60.6247 76.1589 60.6247 76.1589 60.6247 76.1589H60.6247C60.6247 76.1589 60.6247 76.1589 60.6247 76.1589H60.6247C60.6247 76.1589 60.6247 76.1589 60.6247 76.1589C60.6247 76.1589 60.6247 76.1589 60.6247 76.1589H60.6247C60.6247 76.1589 60.6247 76.1589 60.6247 76.1589C60.6247 76.1589 60.6247 76.1589 60.6247 76.1589C60.6247 76.1589 60.6247 76.1589 60.6247 76.1589H60.6247C60.6247 76.1589 60.6248 76.1589 60.6248 76.1589C60.6248 76.1589 60.6248 76.1589 60.6248 76.1589C60.6248 76.1589 60.6248 76.1589 60.6248 76.1589C60.6248 76.1589 60.6248 76.1589 60.6248 76.1589C60.6248 76.1589 60.6248 76.1589 60.6248 76.1589H60.6248C60.6248 76.1589 60.6248 76.1589 60.6248 76.1589C60.6248 76.1589 60.6248 76.1589 60.6248 76.1589C60.6248 76.1589 60.6248 76.1589 60.6248 76.1589C60.6248 76.1589 60.6248 76.1589 60.6248 76.1589C60.6248 76.1589 60.6248 76.1589 60.6248 76.1589C60.6248 76.1589 60.6248 76.1589 60.6248 76.1589C60.6248 76.1589 60.6248 76.1589 60.6248 76.1589C60.6248 76.1589 60.6248 76.1589 60.6248 76.1589C60.6249 76.1589 60.6249 76.1589 60.6249 76.1589C60.6249 76.1589 60.6249 76.1589 60.6249 76.1589C60.6249 76.1589 60.6249 76.1589 60.6249 76.1589C60.6249 76.1589 60.6249 76.1589 60.6249 76.1589C60.6249 76.1589 60.6249 76.1589 60.6249 76.1589C60.6249 76.1589 60.6249 76.1589 60.6249 76.1589C60.6249 76.1589 60.6249 76.1589 60.6249 76.1589C60.6249 76.1589 60.6249 76.1589 60.6249 76.1589C60.6249 76.1589 60.6249 76.1589 60.6249 76.1589C60.6249 76.1589 60.6249 76.1589 60.6249 76.1589C60.6249 76.1589 60.6249 76.1589 60.6249 76.1589C60.6249 76.1589 60.6249 76.1589 60.625 76.1589C60.625 76.1589 60.625 76.1589 60.625 76.1589C60.625 76.1589 60.625 76.1589 60.625 76.1589C60.625 76.1589 60.625 76.1589 60.625 76.1589C60.625 76.1589 60.625 76.1589 60.625 76.1589C60.625 76.1589 60.625 76.1589 60.625 76.1589C60.625 76.1589 60.625 76.1589 60.625 76.1589C60.625 76.1589 60.625 76.1589 60.625 76.1589C60.625 76.1589 60.625 76.1589 60.625 76.1589C60.625 76.1589 60.625 76.1589 60.625 76.1589C60.625 76.1589 60.625 76.1589 60.625 76.1589C60.625 76.1589 60.625 76.1589 60.6251 76.1589C60.6251 76.1589 60.6251 76.1589 60.6251 76.1589C60.6251 76.1589 60.6251 76.1589 60.6251 76.1589C60.6251 76.1589 60.6251 76.1589 60.6251 76.1589C60.6251 76.1589 60.6251 76.1589 60.6251 76.1589C60.6251 76.1589 60.6251 76.1589 60.6251 76.1589C60.6251 76.1589 60.6251 76.1589 60.6251 76.1589C60.6251 76.1589 60.6251 76.1589 60.6251 76.1589C60.6251 76.1589 60.6251 76.1589 60.6251 76.1589C60.6251 76.1589 60.6251 76.1589 60.6251 76.1589C60.6251 76.1589 60.6252 76.1589 60.6252 76.1589C60.6252 76.1589 60.6252 76.1589 60.6252 76.1589C60.6252 76.1589 60.6252 76.1589 60.6252 76.1589C60.6252 76.1589 60.6252 76.1589 60.6252 76.1589C60.6252 76.1589 60.6252 76.1589 60.6252 76.1589C60.6252 76.1589 60.6252 76.1589 60.6252 76.1589C60.6252 76.1589 60.6252 76.1589 60.6252 76.1589C60.6252 76.1589 60.6252 76.1589 60.6252 76.1589C60.6252 76.1589 60.6252 76.1589 60.6252 76.1589C60.6252 76.1589 60.6253 76.1589 60.6253 76.1589C60.6253 76.1589 60.6253 76.1589 60.6253 76.1589C60.6253 76.1589 60.6253 76.1589 60.6253 76.1589C60.6253 76.1589 60.6253 76.1589 60.6253 76.1589C60.6253 76.1589 60.6253 76.1589 60.6253 76.1589C60.6253 76.1589 60.6253 76.1589 60.6253 76.1589C60.6253 76.1589 60.6253 76.1589 60.6253 76.1589C60.6253 76.1589 60.6253 76.1589 60.6253 76.1589C60.6253 76.1589 60.6253 76.1589 60.6254 76.1589C60.6254 76.1589 60.6254 76.1589 60.6254 76.1589C60.6254 76.1589 60.6254 76.1589 60.6254 76.1589C60.6254 76.1589 60.6254 76.1589 60.6254 76.1589C60.6254 76.1589 60.6254 76.1589 60.6254 76.1589C60.6254 76.1589 60.6254 76.1589 60.6254 76.1589C60.6254 76.1589 60.6254 76.1589 60.6254 76.1589C60.6254 76.1589 60.6254 76.1589 60.6254 76.1589C60.6254 76.1589 60.6254 76.1589 60.6255 76.1589C60.6255 76.1589 60.6255 76.1589 60.6255 76.1589C60.6255 76.1589 60.6255 76.1589 60.6255 76.1589C60.6255 76.1589 60.6255 76.1589 60.6255 76.1589C60.6255 76.1589 60.6255 76.1589 60.6255 76.1589C60.6255 76.1589 60.6255 76.1589 60.6255 76.1589C60.6255 76.1589 60.6255 76.1589 60.6255 76.1589C60.6255 76.1589 60.6255 76.1589 60.6255 76.1589C60.6255 76.1589 60.6255 76.1589 60.6256 76.1589C60.6256 76.1589 60.6256 76.1589 60.6256 76.1589C60.6256 76.1589 60.6256 76.1589 60.6256 76.1589C60.6256 76.1589 60.6256 76.1589 60.6256 76.1589C60.6256 76.1589 60.6256 76.1589 60.6256 76.1589C60.6256 76.1589 60.6256 76.1589 60.6256 76.1589C60.6256 76.1589 60.6256 76.1589 60.6256 76.1589C60.6256 76.1589 60.6256 76.1589 60.6256 76.1589C60.6257 76.1589 60.6257 76.1589 60.6257 76.1589C60.6257 76.1589 60.6257 76.1589 60.6257 76.1589C60.6257 76.1589 60.6257 76.1589 60.6257 76.1589C60.6257 76.1589 60.6257 76.1589 60.6257 76.1589C60.6257 76.1589 60.6257 76.1589 60.6257 76.1589C60.6257 76.1589 60.6257 76.1589 60.6257 76.1589C60.6257 76.1589 60.6257 76.1589 60.6257 76.1589C60.6258 76.1589 60.6258 76.1589 60.6258 76.1589C60.6258 76.1589 60.6258 76.1589 60.6258 76.1589C60.6258 76.1589 60.6258 76.1589 60.6258 76.1589C60.6258 76.1589 60.6258 76.1589 60.6258 76.1589C60.6258 76.1589 60.6258 76.1589 60.6258 76.1589C60.6258 76.1589 60.6258 76.1589 60.6258 76.1589C60.6258 76.1589 60.6258 76.1589 60.6259 76.1589C60.6259 76.1589 60.6259 76.1589 60.6259 76.1589C60.6259 76.1589 60.6259 76.1589 60.6259 76.1589C60.6259 76.1589 60.6259 76.1589 60.6259 76.1589C60.6259 76.1589 60.6259 76.1589 60.6259 76.1589C60.6259 76.1589 60.6259 76.1589 60.6259 76.1589C60.6259 76.1589 60.6259 76.1589 60.6259 76.1589C60.6259 76.1589 60.626 76.1589 60.626 76.1589C60.626 76.1589 60.626 76.1589 60.626 76.1589C60.626 76.1589 60.626 76.1589 60.626 76.1589C60.626 76.1589 60.626 76.1589 60.626 76.1589C60.626 76.1589 60.626 76.1589 60.626 76.1589C60.626 76.1589 60.626 76.1589 60.626 76.1589C60.626 76.1589 60.626 76.1589 60.6261 76.1589C60.6261 76.1589 60.6261 76.1589 60.6261 76.1589C60.6261 76.1589 60.6261 76.1589 60.6261 76.1589C60.6261 76.1589 60.6261 76.1589 60.6261 76.1589C60.6261 76.1589 60.6261 76.1589 60.6261 76.1589C60.6261 76.1589 60.6261 76.1589 60.6261 76.1589C60.6261 76.1589 60.6261 76.1589 60.6262 76.1589C60.6262 76.1589 60.6262 76.1589 60.6262 76.1589C60.6262 76.1589 60.6262 76.1589 60.6262 76.1589C60.6262 76.1589 60.6262 76.1589 60.6262 76.1589C60.6262 76.1589 60.6262 76.1589 60.6262 76.1589C60.6262 76.1589 60.6262 76.1589 60.6262 76.1589C60.6262 76.1589 60.6262 76.1589 60.6263 76.1589C60.6263 76.1589 60.6263 76.1589 60.6263 76.1589C60.6263 76.1589 60.6263 76.1589 60.6263 76.1589C60.6263 76.1589 60.6263 76.1589 60.6263 76.1589C60.6263 76.1589 60.6263 76.1589 60.6263 76.1589C60.6263 76.1589 60.6263 76.1589 60.6263 76.1589C60.6263 76.1589 60.6264 76.1589 60.6264 76.1589C60.6264 76.1589 60.6264 76.1589 60.6264 76.1589C60.6264 76.1589 60.6264 76.1589 60.6264 76.1589C60.6264 76.1589 60.6264 76.1589 60.6264 76.1589C60.6264 76.1589 60.6264 76.1589 60.6264 76.1589C60.6264 76.1589 60.6264 76.1589 60.6264 76.1589C60.6265 76.1589 60.6265 76.1589 60.6265 76.1589C60.6265 76.1589 60.6265 76.1589 60.6265 76.1589C60.6265 76.1589 60.6265 76.1589 60.6265 76.1589C60.6265 76.1589 60.6265 76.1589 60.6265 76.1589C60.6265 76.1589 60.6265 76.1589 60.6265 76.1589C60.6265 76.1589 60.6266 76.1589 60.6266 76.1589C60.6266 76.1589 60.6266 76.1589 60.6266 76.1589C60.6266 76.1589 60.6266 76.1589 60.6266 76.1589C60.6266 76.1589 60.6266 76.1589 60.6266 76.1589C60.6266 76.1589 60.6266 76.1589 60.6266 76.1589C60.6266 76.1589 60.6266 76.1589 60.6267 76.1589C60.6267 76.1589 60.6267 76.1589 60.6267 76.1589C60.6267 76.1589 60.6267 76.1589 60.6267 76.1589C60.6267 76.1589 60.6267 76.1589 60.6267 76.1589C60.6267 76.1589 60.6267 76.1589 60.6267 76.1589C60.6267 76.1589 60.6267 76.1589 60.6267 76.1589C60.6268 76.1589 60.6268 76.1589 60.6268 76.1589C60.6268 76.1589 60.6268 76.1589 60.6268 76.1589C60.6268 76.1589 60.6268 76.1589 60.6268 76.1589C60.6268 76.1589 60.6268 76.1589 60.6268 76.1589C60.6268 76.1589 60.6268 76.1589 60.6268 76.1589C60.6269 76.1589 60.6269 76.1589 60.6269 76.1589C60.6269 76.1589 60.6269 76.1589 60.6269 76.1589C60.6269 76.1589 60.6269 76.1589 60.6269 76.1589C60.6269 76.1589 60.6269 76.1589 60.6269 76.1589C60.6269 76.1589 60.6269 76.1589 60.6269 76.1589C60.627 76.1589 60.627 76.1589 60.627 76.1589C60.627 76.1589 60.627 76.1589 60.627 76.1589C60.627 76.1589 60.627 76.1589 60.627 76.1589C60.627 76.1589 60.627 76.1589 60.627 76.1589C60.627 76.1589 60.627 76.1589 60.627 76.1589C60.6271 76.1589 60.6271 76.1589 60.6271 76.1589C60.6271 76.1589 60.6271 76.1589 60.6271 76.1589C60.6271 76.1589 60.6271 76.1589 60.6271 76.1589C60.6271 76.1589 60.6271 76.1589 60.6271 76.1589C60.6271 76.1589 60.6271 76.1589 60.6272 76.1589V75.6589ZM60.6272 75.6589C58.1335 75.6589 55.2614 74.7298 52.1552 72.9293C49.0512 71.1299 45.728 68.4688 42.3367 65.027L41.9806 65.3779C45.3941 68.8424 48.752 71.5345 51.9045 73.3618C55.0547 75.1879 58.0145 76.1589 60.6272 76.1589V75.6589ZM42.3367 65.027L41.1184 63.7909L40.7623 64.1419L41.9806 65.378L42.3367 65.027ZM41.1184 64.1419L42.3367 62.9059L41.9806 62.5549L40.7623 63.7909L41.1184 64.1419ZM42.3379 62.9047C45.5233 59.6299 48.4333 56.1039 51.0391 52.3616L50.6287 52.0759C48.0386 55.7957 45.1459 59.3008 41.9794 62.5561L42.3379 62.9047ZM51.038 52.3631L51.5217 51.6796L51.1136 51.3908L50.6298 52.0743L51.038 52.3631ZM51.3387 51.7843L52.1772 51.7135L52.1351 51.2152L51.2966 51.2861L51.3387 51.7843ZM52.1755 51.7136C56.7638 51.3582 61.3154 50.6348 65.7852 49.5504L65.6673 49.0645C61.2236 50.1426 56.6985 50.8618 52.1368 51.2151L52.1755 51.7136ZM65.7867 49.5501L67.478 49.1286L67.3571 48.6434L65.6658 49.0649L65.7867 49.5501ZM67.1774 48.9556L67.6576 50.6131L68.1379 50.474L67.6577 48.8165L67.1774 48.9556ZM67.6574 50.6124C69.4207 56.7641 70.0288 62.0257 69.5313 66.121C69.0339 70.2155 67.4375 73.1113 64.8214 74.6008L65.0688 75.0353C67.8707 73.4401 69.519 70.3682 70.0276 66.1813C70.5361 61.9954 69.9116 56.6621 68.1381 50.4746L67.6574 50.6124ZM64.8231 74.5999C63.5455 75.3139 62.0986 75.6794 60.6306 75.659L60.6237 76.1589C62.1791 76.1806 63.7126 75.7933 65.067 75.0363L64.8231 74.5999ZM45.7765 64.1147C48.5819 66.8146 51.3186 68.9366 53.8366 70.385C56.3507 71.8313 58.6661 72.6173 60.6236 72.6173V72.1173C58.7899 72.1173 56.5634 71.3768 54.0859 69.9516C51.6123 68.5287 48.9078 66.4343 46.1232 63.7544L45.7765 64.1147ZM60.6236 72.6173C61.6158 72.6173 62.5166 72.4041 63.2738 71.9716L63.0258 71.5375C62.3569 71.9196 61.5448 72.1173 60.6236 72.1173V72.6173ZM63.2736 71.9718C65.162 70.8958 66.2261 68.5185 66.5252 65.2826C66.8253 62.0356 66.3631 57.8603 65.1298 53.0841L64.6457 53.2091C65.8706 57.953 66.3203 62.0669 66.0273 65.2366C65.7334 68.4173 64.6995 70.5839 63.0261 71.5373L63.2736 71.9718ZM64.834 52.9025C61.025 53.7409 57.1646 54.332 53.2775 54.672L53.321 55.1701C57.2296 54.8283 61.1114 54.2339 64.9415 53.3908L64.834 52.9025ZM53.0954 54.7763C50.8563 57.929 48.4081 60.9315 45.767 63.7641L46.1327 64.105C48.7889 61.2563 51.2511 58.2366 53.5031 55.0658L53.0954 54.7763ZM67.478 27.0322L65.7867 26.6107L65.6658 27.0959L67.3571 27.5173L67.478 27.0322ZM65.7854 26.6104C61.3161 25.5225 56.7642 24.7978 52.1754 24.4436L52.1369 24.9421C56.6989 25.2942 61.224 26.0147 65.6671 27.0962L65.7854 26.6104ZM52.1772 24.4438L51.3387 24.3729L51.2966 24.8712L52.1351 24.942L52.1772 24.4438ZM51.5217 24.4776L51.038 23.7941L50.6298 24.0829L51.1136 24.7665L51.5217 24.4776ZM51.0391 23.7957C48.4347 20.0535 45.5245 16.5285 42.3378 13.256L41.9795 13.6048C45.1472 16.8577 48.0399 20.3616 50.6287 24.0813L51.0391 23.7957ZM42.3367 13.2549L41.1184 12.0189L40.7623 12.3698L41.9806 13.6059L42.3367 13.2549ZM41.1184 12.3698L42.3367 11.1338L41.9806 10.7828L40.7623 12.0189L41.1184 12.3698ZM42.3367 11.1338C46.7912 6.61461 51.1309 3.47649 55.0048 1.84355C58.881 0.209648 62.2547 0.0957757 64.8214 1.55642L65.0687 1.12186C62.3142 -0.445616 58.7631 -0.283238 54.8106 1.38281C50.8558 3.04981 46.463 6.23534 41.9806 10.7828L42.3367 11.1338ZM64.8213 1.55634C67.4375 3.04764 69.0348 5.94358 69.5326 10.038C70.0305 14.1333 69.4225 19.3949 67.6574 25.5483L68.138 25.6862C69.9133 19.497 70.5379 14.1636 70.0289 9.97764C69.5199 5.79075 67.8706 2.71898 65.0689 1.12195L64.8213 1.55634ZM67.6576 25.5477L67.1774 27.2052L67.6577 27.3443L68.1379 25.6868L67.6576 25.5477ZM53.2768 21.4852C57.3591 21.8527 61.2362 22.4496 64.8331 23.2546L64.9423 22.7666C61.3224 21.9566 57.4237 21.3565 53.3216 20.9872L53.2768 21.4852ZM65.1298 23.0731C66.3631 18.2969 66.8253 14.1225 66.5252 10.8764C66.2261 7.64133 65.162 5.26493 63.2736 4.18901L63.0261 4.62344C64.6995 5.57689 65.7334 7.74268 66.0273 10.9224C66.3203 14.0912 65.8706 18.2043 64.6457 22.9481L65.1298 23.0731ZM63.2738 4.18914C61.3957 3.11631 58.7482 3.4272 55.7452 4.8018C52.7294 6.18221 49.2916 8.6625 45.7764 12.0461L46.1232 12.4063C49.6135 9.04662 53.0054 6.60577 55.9533 5.25643C58.9138 3.9013 61.3636 3.67385 63.0258 4.62331L63.2738 4.18914ZM45.7669 12.3967C48.4066 15.2293 50.8548 18.2306 53.0955 21.3811L53.503 21.0913C51.2494 17.9229 48.7874 14.9045 46.1327 12.0558L45.7669 12.3967ZM26.263 75.659C24.7939 75.68 23.3457 75.3144 22.067 74.5999L21.8231 75.0363C23.1786 75.7939 24.7135 76.1813 26.2702 76.1589L26.263 75.659ZM22.0688 74.6008C19.4526 73.1113 17.8554 70.2163 17.358 66.1224C16.8605 62.0275 17.4695 56.766 19.2363 50.6125L18.7557 50.4745C16.9786 56.6638 16.3531 61.9971 16.8616 66.1827C17.3703 70.3691 19.0195 73.4401 21.8214 75.0353L22.0688 74.6008ZM19.2364 50.6121L19.7094 48.9546L19.2286 48.8174L18.7556 50.4749L19.2364 50.6121ZM19.4085 49.1286L21.0999 49.5501L21.2208 49.0649L19.5294 48.6434L19.4085 49.1286ZM21.0999 49.5501C25.2535 50.5844 29.8321 51.3123 34.7027 51.7135L34.7438 51.2152C29.8963 50.8159 25.3447 50.0918 21.2207 49.0649L21.0999 49.5501ZM34.7023 51.7135L35.5444 51.7843L35.5863 51.2861L34.7442 51.2152L34.7023 51.7135ZM35.3607 51.6789L35.8409 52.3624L36.2501 52.075L35.7699 51.3915L35.3607 51.6789ZM35.8404 52.3617C38.4481 56.1034 41.3592 59.6294 44.5451 62.9047L44.9035 62.5561C41.7366 59.3002 38.8427 55.7952 36.2506 52.0758L35.8404 52.3617ZM44.5463 62.9059L45.7646 64.1419L46.1207 63.7909L44.9024 62.5549L44.5463 62.9059ZM45.7646 63.7909L44.5463 65.027L44.9024 65.378L46.1207 64.1419L45.7646 63.7909ZM44.5462 65.0271C41.1568 68.4689 37.8345 71.13 34.7317 72.9293C31.6268 74.7299 28.7566 75.6589 26.2666 75.6589V76.1589C28.8757 76.1589 31.8337 75.1879 34.9826 73.3618C38.1337 71.5344 41.4907 68.8423 44.9024 65.3779L44.5462 65.0271ZM21.7603 53.0841C20.5271 57.8603 20.0648 62.0356 20.3649 65.2826C20.664 68.5185 21.7281 70.8958 23.6166 71.9718L23.8641 71.5373C22.1907 70.5839 21.1568 68.4173 20.8628 65.2366C20.5699 62.0669 21.0196 57.953 22.2445 53.2091L21.7603 53.0841ZM23.6175 71.9723C25.4934 73.0299 28.1382 72.7186 31.1407 71.3471C34.156 69.9699 37.5947 67.4967 41.1136 64.1148L40.7671 63.7543C37.2733 67.1122 33.8805 69.546 30.933 70.8923C27.9729 72.2444 25.524 72.4732 23.8631 71.5368L23.6175 71.9723ZM41.1233 63.7642C38.4833 60.9294 36.034 57.927 33.791 54.776L33.3836 55.066C35.6394 58.2348 38.1026 61.2542 40.7574 64.1049L41.1233 63.7642ZM33.6091 54.672C29.7231 54.3323 25.8639 53.7412 22.0562 52.9025L21.9486 53.3908C25.7774 54.2342 29.6581 54.8285 33.5655 55.1701L33.6091 54.672ZM43.4451 55.1208C40.5031 55.1208 37.4784 54.9936 34.4498 54.7462L34.409 55.2446C37.4506 55.493 40.4889 55.6208 43.4451 55.6208V55.1208ZM34.4504 54.7463L33.6083 54.6754L33.5664 55.1737L34.4084 55.2445L34.4504 54.7463ZM33.7914 54.7801L33.3076 54.0966L32.8995 54.3854L33.3833 55.069L33.7914 54.7801ZM33.308 54.0971C31.5952 51.6647 29.9851 49.1632 28.4817 46.5992L28.0504 46.8521C29.5608 49.4281 31.1784 51.9412 32.8992 54.3849L33.308 54.0971ZM28.4819 46.5995C26.983 44.0334 25.5924 41.407 24.3135 38.7271L23.8623 38.9424C25.1471 41.6349 26.5443 44.2736 28.0502 46.8517L28.4819 46.5995ZM24.3141 38.7284L23.9594 37.974L23.5069 38.1868L23.8617 38.9412L24.3141 38.7284ZM23.9594 38.1868L24.3141 37.4324L23.8617 37.2196L23.5069 37.974L23.9594 38.1868ZM24.3135 37.4337C25.5922 34.7537 26.9828 32.1273 28.4819 29.5613L28.0502 29.3091C26.5441 31.8871 25.1469 34.5258 23.8623 37.2184L24.3135 37.4337ZM28.4819 29.5614C29.9617 27.0319 31.5883 24.509 33.3081 22.0636L32.8991 21.776C31.1717 24.2322 29.5375 26.7668 28.0503 29.3089L28.4819 29.5614ZM33.3076 22.0642L33.7914 21.3806L33.3833 21.0918L32.8995 21.7753L33.3076 22.0642ZM33.6083 21.4853L34.4504 21.4145L34.4084 20.9163L33.5664 20.9871L33.6083 21.4853ZM34.4503 21.4145C40.4373 20.9128 46.4565 20.9128 52.4434 21.4145L52.4852 20.9163C46.4704 20.4122 40.4233 20.4122 34.4085 20.9163L34.4503 21.4145ZM52.4433 21.4145L53.2818 21.4853L53.3239 20.9871L52.4854 20.9163L52.4433 21.4145ZM53.0982 21.3799L53.5784 22.0635L53.9876 21.7761L53.5074 21.0925L53.0982 21.3799ZM53.5786 22.0638C57.0076 26.9294 60.0174 32.0707 62.5766 37.4337L63.0279 37.2183C60.4566 31.83 57.4324 26.6643 53.9873 21.7758L53.5786 22.0638ZM62.5768 37.4342L62.9387 38.1885L63.3896 37.9723L63.0276 37.2179L62.5768 37.4342ZM62.9387 37.9723L62.5768 38.7266L63.0276 38.9429L63.3896 38.1885L62.9387 37.9723ZM62.5765 38.7274C60.0235 44.0933 57.0135 49.235 53.5788 54.0968L53.9872 54.3853C57.4383 49.5002 60.4628 44.3339 63.028 38.9422L62.5765 38.7274ZM53.5784 54.0973L53.0982 54.7809L53.5074 55.0683L53.9876 54.3847L53.5784 54.0973ZM53.2818 54.6754L52.4433 54.7463L52.4854 55.2445L53.3239 55.1737L53.2818 54.6754ZM52.444 54.7462C49.4153 54.9936 46.387 55.1208 43.4451 55.1208V55.6208C46.4013 55.6208 49.4431 55.493 52.4847 55.2446L52.444 54.7462ZM35.554 51.781C40.8696 52.175 46.0205 52.175 51.3397 51.781L51.3028 51.2823C46.0081 51.6745 40.882 51.6745 35.591 51.2823L35.554 51.781ZM51.5268 51.6739C54.4968 47.3825 57.1338 42.8749 59.415 38.1898L58.9655 37.9709C56.6954 42.6332 54.0713 47.1188 51.1157 51.3894L51.5268 51.6739ZM59.4151 37.9712C57.1378 33.2831 54.4994 28.7749 51.523 24.4866L51.1123 24.7717C54.0739 29.0389 56.6994 33.5248 58.9654 38.1896L59.4151 37.9712ZM51.3363 24.3798C46.083 23.9858 40.8071 23.9858 35.5538 24.3798L35.5912 24.8784C40.8196 24.4862 46.0705 24.4862 51.2989 24.8784L51.3363 24.3798ZM35.3671 24.4865C32.3895 28.7741 29.7509 33.2824 27.475 37.9712L27.9248 38.1896C30.1894 33.524 32.8149 29.0381 35.7778 24.7717L35.3671 24.4865ZM27.4752 38.1899C29.7589 42.8744 32.3969 47.3819 35.3669 51.6739L35.7781 51.3894C32.8225 47.1181 30.1972 42.6325 27.9246 37.9708L27.4752 38.1899Z" fill="black" mask="url(#path-1-outside-1_808_182)"/>
</svg>
