<svg width="86" height="86" viewBox="0 0 86 86" fill="none" xmlns="http://www.w3.org/2000/svg">
<path d="M25.9451 26.0947L28.242 24.4358C27.5224 23.4396 26.2427 23.0207 25.0734 23.3988C23.904 23.7769 23.1117 24.8658 23.1117 26.0947H25.9451ZM42.9451 79.9281C22.6026 79.9281 6.11173 63.4375 6.11173 43.0947H0.445068C0.445068 66.5666 19.4729 85.5947 42.9451 85.5947V79.9281ZM79.7784 43.0947C79.7784 63.4375 63.2878 79.9281 42.9451 79.9281V85.5947C66.417 85.5947 85.4451 66.5666 85.4451 43.0947H79.7784ZM42.9451 6.26139C63.2878 6.26139 79.7784 22.7522 79.7784 43.0947H85.4451C85.4451 19.6226 66.417 0.594727 42.9451 0.594727V6.26139ZM42.9451 0.594727C19.4729 0.594727 0.445068 19.6226 0.445068 43.0947H6.11173C6.11173 22.7522 22.6026 6.26139 42.9451 6.26139V0.594727ZM28.7784 68.5947V26.0947H23.1117V68.5947H28.7784ZM23.6481 27.7536L60.4817 78.7534L65.0751 75.4361L28.242 24.4358L23.6481 27.7536ZM57.1117 23.2614V57.2614H62.7784V23.2614H57.1117Z" fill="black"/>
</svg>
